<svg width="1204" height="251" viewBox="0 0 1204 251" fill="none" xmlns="http://www.w3.org/2000/svg">
<path d="M80.9691 193.403C94.6184 193.403 104.797 188.776 112.2 179.291L112.663 179.522V191.321H147.133V78.1936H110.812V89.9921L110.35 90.2235C102.484 80.9697 91.1482 76.1115 79.1184 76.1115C49.9691 76.1115 27.5288 100.171 27.5288 134.873C27.5288 169.806 49.9691 193.403 80.9691 193.403ZM88.6035 161.477C74.2602 161.477 64.3124 150.835 64.3124 134.873C64.3124 118.679 74.7229 108.037 88.6035 108.037C102.021 108.037 112.432 119.373 112.432 134.873C112.432 151.067 101.559 161.477 88.6035 161.477Z" fill="#FF6726"/>
<path d="M219.012 239.209C264.818 239.209 280.087 213.298 280.087 176.515V78.1936H243.766V89.2981H243.303C234.744 80.507 223.177 76.1115 210.915 76.1115C182.46 76.1115 160.714 99.9399 160.714 133.485C160.714 165.641 182.46 189.238 212.998 189.238C226.184 189.238 236.595 184.612 244.229 176.746L244.692 176.977V187.388C244.692 199.186 234.744 208.903 215.08 208.903C202.587 208.903 190.095 204.507 180.609 198.955L172.512 228.335C186.393 235.97 200.736 239.209 219.012 239.209ZM221.557 157.082C207.908 157.082 197.497 147.365 197.497 132.791C197.497 118.216 207.677 108.268 221.557 108.268C234.975 108.268 245.386 118.216 245.386 132.559C245.386 146.903 235.206 157.082 221.557 157.082Z" fill="#FF6726"/>
<path d="M355.216 193.403C390.843 193.403 416.29 169.574 416.29 134.873C416.29 99.9399 390.843 76.1115 355.216 76.1115C318.664 76.1115 293.91 100.403 293.91 134.873C293.91 169.112 318.664 193.403 355.216 193.403ZM355.216 161.477C340.873 161.477 330.462 149.91 330.462 134.873C330.462 119.373 340.641 108.268 355.216 108.268C369.328 108.268 379.738 119.141 379.738 134.873C379.738 150.373 368.865 161.477 355.216 161.477Z" fill="#FF6726"/>
<path d="M431.066 191.321H467.155V140.425C467.155 125.619 475.946 114.746 493.066 114.746C494.917 114.746 498.155 114.977 501.625 115.209V76.1115H500.237C487.745 76.1115 475.946 82.3578 467.618 93.9249H467.155V78.1936H431.066V191.321Z" fill="#FF6726"/>
<path d="M559.037 193.403C572.686 193.403 582.865 188.776 590.268 179.291L590.731 179.522V191.321H625.201V78.1936H588.88V89.9921L588.417 90.2235C580.552 80.9697 569.216 76.1115 557.186 76.1115C528.037 76.1115 505.596 100.171 505.596 134.873C505.596 169.806 528.037 193.403 559.037 193.403ZM566.671 161.477C552.328 161.477 542.38 150.835 542.38 134.873C542.38 118.679 552.79 108.037 566.671 108.037C580.089 108.037 590.499 119.373 590.499 134.873C590.499 151.067 579.626 161.477 566.671 161.477Z" fill="#FF6726"/>
<path d="M656.09 237.126H686.396V178.828L686.859 178.597C694.724 188.082 705.829 193.402 719.941 193.402C751.403 193.402 774.306 170.037 774.306 135.104C774.306 100.865 751.403 76.5741 720.866 76.5741C706.985 76.5741 694.956 81.6637 686.859 91.1487H686.396V78.1935H656.09V237.126ZM714.62 166.104C697.963 166.104 685.008 153.843 685.008 135.335C685.008 117.059 697.038 103.641 714.388 103.641C730.582 103.641 743.538 115.902 743.538 135.335C743.538 153.38 731.508 166.104 714.62 166.104Z" fill="#344563"/>
<path d="M830.814 193.402C843.538 193.402 855.567 188.082 864.127 177.671L864.59 177.902V191.32H895.127V78.1935H864.59V133.253C864.59 155 852.791 166.104 839.605 166.104C825.493 166.104 819.247 159.164 819.247 138.574V78.1935H789.172V146.44C789.172 180.91 806.291 193.402 830.814 193.402Z" fill="#344563"/>
<path d="M918.769 191.32H949.075V21.0517H918.769V191.32Z" fill="#344563"/>
<path d="M1010.25 193.402C1039.86 193.402 1053.98 178.134 1053.98 158.238C1053.98 135.798 1039.63 130.477 1015.11 121.455C1004 117.291 998.453 114.052 998.453 109.425C998.453 103.41 1004.47 101.097 1009.09 101.097C1017.42 101.097 1027.6 104.798 1036.16 113.126L1050.97 90.6861C1038.01 80.7383 1025.29 76.5741 1009.79 76.5741C986.423 76.5741 968.841 89.7607 968.841 110.119C968.841 132.097 985.035 140.888 1003.77 147.134C1018.35 151.992 1024.13 154.537 1024.13 159.395C1024.13 164.947 1019.27 168.649 1010.48 168.649C997.99 168.649 988.274 164.253 979.02 155.694L964.445 176.746C976.706 187.388 992.206 193.402 1010.25 193.402Z" fill="#344563"/>
<path d="M1175.04 133.716C1175.04 100.634 1152.83 76.5741 1120.91 76.5741C1087.36 76.5741 1063.53 100.171 1063.53 134.641C1063.53 170.037 1088.05 193.402 1122.76 193.402C1147.97 193.402 1162.55 184.149 1172.03 171.888L1152.37 153.611C1146.35 161.014 1137.56 166.335 1124.84 166.335C1109.57 166.335 1098.7 158.238 1095 144.589H1174.35C1174.58 142.738 1175.04 137.417 1175.04 133.716ZM1120.67 102.947C1133.86 102.947 1141.96 110.813 1144.97 122.843H1095.23C1098.7 109.888 1108.41 102.947 1120.67 102.947Z" fill="#344563"/>
</svg>
