<svg xmlns:dc="http://purl.org/dc/elements/1.1/" xmlns:cc="http://creativecommons.org/ns#" xmlns:rdf="http://www.w3.org/1999/02/22-rdf-syntax-ns#" xmlns:svg="http://www.w3.org/2000/svg" xmlns="http://www.w3.org/2000/svg" xmlns:xlink="http://www.w3.org/1999/xlink" id="svg47510" viewBox="0 0 1024 768" height="768px" width="1024px" version="1.1">
  <metadata id="metadata47516">
    <rdf:rdf>
      <cc:work rdf:about="">
        <dc:format>image/svg+xml</dc:format>
        <dc:type rdf:resource="http://purl.org/dc/dcmitype/StillImage"></dc:type>
      </cc:work>
    </rdf:rdf>
  </metadata>
  <defs id="defs47514"></defs>
  <linearGradient spreadMethod="pad" y2="30%" x2="-10%" y1="120%" x1="30%" id="3d_gradient2-logo-91318a8a-b0ff-4d4f-89cf-85775210a66a">
    <stop id="stop47491" stop-opacity="1" stop-color="#ffffff" offset="0%"></stop>
    <stop id="stop47493" stop-opacity="1" stop-color="#000000" offset="100%"></stop>
  </linearGradient>
  <linearGradient gradientTransform="rotate(-30)" spreadMethod="pad" y2="30%" x2="-10%" y1="120%" x1="30%" id="3d_gradient3-logo-91318a8a-b0ff-4d4f-89cf-85775210a66a">
    <stop id="stop47496" stop-opacity="1" stop-color="#ffffff" offset="0%"></stop>
    <stop id="stop47498" stop-opacity="1" stop-color="#cccccc" offset="50%"></stop>
    <stop id="stop47500" stop-opacity="1" stop-color="#000000" offset="100%"></stop>
  </linearGradient>
  <g id="logo-group">
    <image xlink:href="" id="container" x="272" y="144" width="480" height="480" transform="translate(0 0)" style="display: none;"></image>
    <g id="logo-center" transform="translate(0 0)">
      <image xlink:href="" id="icon_container" x="0" y="0" style="display: none;"></image>
      <g id="slogan" style="font-style:normal;font-weight:400;font-size:32px;line-height:1;font-family:Montserrat;font-variant-ligatures:none;text-align:center;text-anchor:middle" transform="translate(0 0)"></g>
      <g id="title" style="font-style:oblique;font-weight:700;font-size:72px;line-height:1;font-family:Averta;font-variant-ligatures:none;text-align:center;text-anchor:middle" transform="translate(0 0)">
        <path id="path47519" style="font-style:oblique;font-weight:700;font-size:72px;line-height:1;font-family:Averta;font-variant-ligatures:none;text-align:center;text-anchor:middle" d="M 376.66475,-22.32 373.85675,0 h 11.664 l 2.736,-22.32 18.648,-28.8 h -13.176 l -9.936,18 h -0.216 l -5.688,-18 h -12.672 z" stroke-width="0" stroke-linejoin="miter" stroke-miterlimit="2" fill="#16a636" stroke="#16a636" transform="translate(0 350.38792) translate(117.20465801 -33.70719999999999) scale(2.66) translate(-365.21675 51.12)"></path>
        <path id="path47521" style="font-style:oblique;font-weight:700;font-size:72px;line-height:1;font-family:Averta;font-variant-ligatures:none;text-align:center;text-anchor:middle" d="m 412.06063,0.648 c 13.464,0 19.584,-10.008 19.584,-21.456 0,-9.576 -5.976,-15.048 -15.048,-15.048 -12.38401,0 -19.44,10.08 -19.44,21.384 0,9.648 5.976,15.12 14.904,15.12 z M 412.85262,-9 c -2.30399,0 -4.752,-1.872 -4.752,-6.048 0,-5.4 2.88,-11.16 7.632,-11.16 1.944,0 4.968,1.08 4.968,6.12 0,5.76 -3.096,11.088 -7.848,11.088 z" stroke-width="0" stroke-linejoin="miter" stroke-miterlimit="2" fill="#109323" stroke="#109323" transform="translate(0 350.38792) translate(202.16473881000007 6.895039999999987) scale(2.66) translate(-397.15663 35.856)"></path>
        <path id="path47523" style="font-style:oblique;font-weight:700;font-size:72px;line-height:1;font-family:Averta;font-variant-ligatures:none;text-align:center;text-anchor:middle" d="m 445.55525,0.648 c 4.392,0 7.848,-2.304 10.44,-5.832 h 0.144 L 455.70725,0 h 10.584 l 4.32,-35.208 h -10.8 l -1.944,16.128 c -0.648,5.184 -4.896,10.08 -7.92,10.08 -2.52,0 -3.096,-1.872 -2.304,-7.56 l 2.664,-18.648 h -10.728 l -3.024,21.888 c -1.512,10.44 2.448,13.968 9,13.968 z" stroke-width="0" stroke-linejoin="miter" stroke-miterlimit="2" fill="#09800f" stroke="#09800f" transform="translate(0 350.38792) translate(306.11019721000014 8.618720000000003) scale(2.66) translate(-436.23387 35.208)"></path>
        <path id="path47525" style="font-style:oblique;font-weight:700;font-size:72px;line-height:1;font-family:Averta;font-variant-ligatures:none;text-align:center;text-anchor:middle" d="M 478.53575,-35.208 474.21575,0 h 10.8 l 1.584,-13.536 c 1.296,-8.352 5.616,-12.24 10.8,-10.368 l 1.512,-11.952 c -3.888,0 -7.344,1.872 -10.08,5.472 h -0.144 l 0.648,-4.824 z" stroke-width="0" stroke-linejoin="miter" stroke-miterlimit="2" fill="#6eaa0f" stroke="#6eaa0f" transform="translate(0 350.38792) translate(407.1419980100001 6.895039999999987) scale(2.66) translate(-474.21575 35.856)"></path>
        <path id="path47527" style="font-style:oblique;font-weight:700;font-size:72px;line-height:1;font-family:Averta;font-variant-ligatures:none;text-align:center;text-anchor:middle" d="M 501.218,-51.12 511.802,0 h 10.224 l 23.04,-51.12 h -12.672 l -13.464,33.84 h -0.144 l -5.256,-33.84 z" stroke-width="0" stroke-linejoin="miter" stroke-miterlimit="2" fill="#d3d30f" stroke="#d3d30f" transform="translate(0 350.38792) translate(478.96798301 -33.70719999999999) scale(2.66) translate(-501.218 51.12)"></path>
        <path id="path47529" style="font-style:oblique;font-weight:700;font-size:72px;line-height:1;font-family:Averta;font-variant-ligatures:none;text-align:center;text-anchor:middle" d="m 553.24812,0.648 c 13.46401,0 19.58401,-10.008 19.58401,-21.456 0,-9.576 -5.976,-15.048 -15.048,-15.048 -12.38401,0 -19.44001,10.08 -19.44001,21.384 0,9.648 5.976,15.12 14.904,15.12 z m 0.792,-9.648 c -2.30399,0 -4.75199,-1.872 -4.75199,-6.048 0,-5.4 2.88,-11.16 7.63199,-11.16 1.94401,0 4.968,1.08 4.968,6.12 0,5.76 -3.096,11.088 -7.848,11.088 z" stroke-width="0" stroke-linejoin="miter" stroke-miterlimit="2" fill="#dddd0c" stroke="#dddd0c" transform="translate(0 350.38792) translate(577.7234622099999 6.895039999999987) scale(2.66) translate(-538.34412 35.856)"></path>
        <path id="path47531" style="font-style:oblique;font-weight:700;font-size:72px;line-height:1;font-family:Averta;font-variant-ligatures:none;text-align:center;text-anchor:middle" d="m 587.96338,-39.744 c 3.95999,0 6.69599,-2.736 6.69599,-6.408 0,-3.528 -2.592,-6.12 -6.47999,-6.12 -3.96,0 -6.696,2.664 -6.696,6.336 0,3.528 2.66399,6.192 6.48,6.192 z m -6.696,4.536 L 576.94737,0 h 10.80001 l 4.31999,-35.208 z" stroke-width="0" stroke-linejoin="miter" stroke-miterlimit="2" fill="#e7e709" stroke="#e7e709" transform="translate(0 350.38792) translate(680.4081072099998 -36.77152) scale(2.66) translate(-576.94737 52.272)"></path>
        <path id="path47533" style="font-style:oblique;font-weight:700;font-size:72px;line-height:1;font-family:Averta;font-variant-ligatures:none;text-align:center;text-anchor:middle" d="m 611.045,0.648 c 6.768,0 11.592,-2.664 15.264,-7.704 l -8.352,-5.328 c -2.088,2.52 -4.104,3.384 -6.12,3.384 -2.952,0 -4.824,-2.304 -4.824,-6.12 0,-5.904 3.312,-11.16 8.136,-11.16 2.016,0 3.816,0.864 4.968,3.096 l 8.28,-6.192 c -2.88,-4.176 -7.272,-6.48 -13.536,-6.48 -12.168,0 -18.72,10.368 -18.72,21.168 0,10.008 5.76,15.336 14.904,15.336 z" stroke-width="0" stroke-linejoin="miter" stroke-miterlimit="2" fill="#bfc80b" stroke="#bfc80b" transform="translate(0 350.38792) translate(731.4631630099998 6.895039999999987) scale(2.66) translate(-596.141 35.856)"></path>
        <path id="path47535" style="font-style:oblique;font-weight:700;font-size:72px;line-height:1;font-family:Averta;font-variant-ligatures:none;text-align:center;text-anchor:middle" d="m 662.05475,-26.136 c 0.072,-6.624 -6.336,-9.72 -12.024,-9.72 -11.88,0 -19.296,9.792 -19.296,21.744 -0.072,9.144 5.832,14.76 14.688,14.76 6.912,0 11.592,-2.592 15.336,-7.704 l -8.064,-4.752 c -1.944,2.592 -4.032,3.528 -6.408,3.528 -2.088,0 -4.392,-1.296 -5.04,-4.464 10.368,-1.08 20.664,-4.464 20.808,-13.392 z m -10.368,1.512 c -0.072,3.456 -4.824,4.824 -10.08,5.4 1.224,-4.896 4.392,-7.632 7.488,-7.632 1.656,0 2.664,0.792 2.592,2.232 z" stroke-width="0" stroke-linejoin="miter" stroke-miterlimit="2" fill="#97a80d" stroke="#97a80d" transform="translate(0 350.38792) translate(823.48080901 6.895039999999987) scale(2.66) translate(-630.7341 35.856)"></path>
      </g>
      <image xlink:href="" id="icon" x="0" y="0" style="display: none;"></image>
    </g>
  </g>
</svg>