<svg width="121" height="135" viewBox="0 0 121 135" fill="none" xmlns="http://www.w3.org/2000/svg">
<path d="M10.4266 104.722L61.2723 130.596L110.187 104.722V3.54565H10.4266V104.722Z" fill="white"/>
<path d="M111.217 3.93188L9.39694 106.524L62.1735 132.655L111.217 107.554V3.93188Z" fill="#F2F3F2"/>
<path d="M7.07983 37.2713V106.911L8.88196 107.812L59.7277 133.685L61.2724 134.457L62.8171 133.685L111.861 107.812L113.663 106.911V0.198975H7.07983V37.2713ZM10.4266 104.98V3.54578H110.316V104.98L61.2724 130.853L10.4266 104.98Z" fill="#DCDEDC"/>
<path d="M60.3714 5.21919C60.8863 5.21919 61.4011 5.21919 61.916 5.34791L60.3714 8.30855C58.0543 8.17983 55.9948 9.98195 55.866 12.299C55.7373 14.616 57.5394 16.6756 59.8565 16.8043H60.3714C61.4012 16.8043 62.4309 16.4181 63.2033 15.7745L64.8767 18.6064C63.5895 19.5075 62.0448 20.0224 60.3714 20.0224C56.2522 20.1511 52.7767 17.0617 52.648 12.9426C52.5192 8.82344 55.6086 5.34791 59.7277 5.21919H60.3714ZM65.649 11.5266L67.5799 14.7447L65.649 17.8341L63.8469 14.7447H60.1139L62.0448 11.5266H65.649ZM62.5597 10.3681C62.5597 9.85323 62.6884 9.33834 62.9458 8.95217C63.2033 8.566 63.7182 8.17983 64.1043 7.92238L64.3618 7.79366C64.8767 7.53621 65.0054 7.40749 65.0054 7.15004C65.0054 6.89259 64.6192 6.63514 64.3618 6.63514C63.8469 6.63514 63.4607 6.89259 63.2033 7.40749L62.5597 6.76387C62.6884 6.50642 62.9458 6.24897 63.2033 5.99153C63.5894 5.73408 63.9756 5.73408 64.3618 5.73408C64.748 5.73408 65.2629 5.8628 65.5203 6.12025C65.7778 6.3777 66.0352 6.76387 66.0352 7.15004C66.0352 7.79366 65.649 8.30855 64.8767 8.566L64.4905 8.82344C64.1043 9.08089 63.8469 9.20961 63.7182 9.59578H66.0352V10.4968L62.5597 10.3681ZM60.3714 26.4585L72.6001 19.5075V0.198975H48.0139V19.3788L60.3714 26.4585Z" fill="#FF492C"/>
<path d="M116.109 72.0266H4.6341L0.514954 81.0372L4.6341 90.0479H116.109L120.099 81.0372L116.109 72.0266Z" fill="#FF492C"/>
<path d="M24.5218 66.234C24.4445 66.234 24.3802 66.2083 24.3287 66.1568C24.2772 66.0967 24.2515 66.0281 24.2515 65.9509V50.2981C24.2515 50.2209 24.2772 50.1522 24.3287 50.0921C24.3802 50.0406 24.4445 50.0149 24.5218 50.0149H27.2378C27.3151 50.0149 27.3794 50.0406 27.4309 50.0921C27.491 50.1522 27.521 50.2209 27.521 50.2981V63.312C27.521 63.3893 27.5597 63.4279 27.6369 63.4279H35.2058C35.2831 63.4279 35.3517 63.4536 35.4118 63.5051C35.4633 63.5652 35.489 63.6338 35.489 63.7111V65.9509C35.489 66.0281 35.4633 66.0967 35.4118 66.1568C35.3517 66.2083 35.2831 66.234 35.2058 66.234H24.5218ZM47.8336 59.0513C47.928 59.6348 47.958 60.2913 47.9237 61.0207C47.9151 61.2095 47.8164 61.3039 47.6276 61.3039H40.4706C40.3762 61.3039 40.3462 61.3426 40.3805 61.4198C40.4234 61.7287 40.5049 62.0377 40.6251 62.3466C41.0284 63.2048 41.848 63.6338 43.0837 63.6338C44.0706 63.6252 44.8515 63.2262 45.4265 62.4367C45.4865 62.3423 45.5552 62.2951 45.6324 62.2951C45.6839 62.2951 45.7397 62.3251 45.7998 62.3852L47.4603 64.0329C47.5375 64.1101 47.5761 64.1788 47.5761 64.2388C47.5761 64.2732 47.5461 64.3375 47.486 64.4319C46.9797 65.0584 46.3232 65.5475 45.5166 65.8994C44.7185 66.2426 43.8389 66.4143 42.8777 66.4143C41.5476 66.4143 40.4234 66.1139 39.5052 65.5132C38.587 64.9125 37.9262 64.0715 37.5228 62.9902C37.1967 62.2179 37.0337 61.2052 37.0337 59.9523C37.0337 59.1028 37.1495 58.3562 37.3813 57.7126C37.7417 56.6141 38.3638 55.7388 39.2477 55.0866C40.1402 54.443 41.1958 54.1212 42.4143 54.1212C43.959 54.1212 45.1991 54.5674 46.1344 55.4599C47.0698 56.3524 47.6362 57.5495 47.8336 59.0513ZM42.4401 56.9402C41.4618 56.9402 40.8182 57.395 40.5092 58.3047C40.4492 58.5106 40.3977 58.7595 40.3548 59.0513C40.3548 59.1285 40.3934 59.1671 40.4706 59.1671H44.4739C44.5683 59.1671 44.5983 59.1285 44.564 59.0513C44.4868 58.605 44.4482 58.3905 44.4482 58.4077C44.3109 57.9443 44.0706 57.5838 43.7273 57.3264C43.3755 57.0689 42.9464 56.9402 42.4401 56.9402ZM54.6945 54.134C55.6986 54.134 56.5954 54.31 57.3849 54.6618C58.1744 55.0051 58.788 55.4813 59.2256 56.0906C59.6633 56.6913 59.8821 57.3607 59.8821 58.0987V65.9509C59.8821 66.0281 59.8564 66.0967 59.8049 66.1568C59.7534 66.2083 59.689 66.234 59.6118 66.234H56.8957C56.8185 66.234 56.7541 66.2083 56.7026 66.1568C56.6426 66.0967 56.6125 66.0281 56.6125 65.9509V65.1914C56.6125 65.1485 56.5997 65.1184 56.5739 65.1013C56.5396 65.0841 56.5095 65.097 56.4838 65.1399C55.8316 65.9895 54.7889 66.4143 53.3558 66.4143C52.1458 66.4143 51.1718 66.1225 50.4338 65.5389C49.6872 64.9554 49.3139 64.0887 49.3139 62.9387C49.3139 61.7545 49.7344 60.832 50.5754 60.1712C51.4078 59.519 52.5964 59.1929 54.141 59.1929H56.4967C56.5739 59.1929 56.6125 59.1543 56.6125 59.077V58.5621C56.6125 58.0558 56.4581 57.6568 56.1491 57.365C55.8402 57.0818 55.3768 56.9402 54.7589 56.9402C54.2869 56.9402 53.8922 57.026 53.5747 57.1977C53.2571 57.3693 53.0512 57.6096 52.9568 57.9185C52.9139 58.0901 52.8152 58.1674 52.6607 58.1502L49.8545 57.7769C49.6658 57.7426 49.5799 57.6739 49.5971 57.571C49.6572 56.9188 49.9146 56.3309 50.3694 55.8074C50.8243 55.284 51.4293 54.8763 52.1844 54.5846C52.931 54.2842 53.7677 54.134 54.6945 54.134ZM54.2311 63.9814C54.8919 63.9814 55.454 63.8055 55.9174 63.4536C56.3808 63.1018 56.6125 62.647 56.6125 62.0891V61.2524C56.6125 61.1752 56.5739 61.1366 56.4967 61.1366H54.8361C54.141 61.1366 53.5961 61.2696 53.2014 61.5356C52.8066 61.7931 52.6092 62.1621 52.6092 62.6427C52.6092 63.0632 52.7551 63.3893 53.0469 63.621C53.3387 63.8612 53.7334 63.9814 54.2311 63.9814ZM69.575 50.2981C69.575 50.2209 69.6007 50.1522 69.6522 50.0921C69.7037 50.0406 69.7681 50.0149 69.8453 50.0149H72.5614C72.6386 50.0149 72.703 50.0406 72.7544 50.0921C72.8059 50.1522 72.8317 50.2209 72.8317 50.2981V65.9509C72.8317 66.0281 72.8059 66.0967 72.7544 66.1568C72.703 66.2083 72.6386 66.234 72.5614 66.234H69.8453C69.7681 66.234 69.7037 66.2083 69.6522 66.1568C69.6007 66.0967 69.575 66.0281 69.575 65.9509V65.1914C69.575 65.1485 69.5578 65.1227 69.5235 65.1142C69.4892 65.1056 69.4591 65.1142 69.4334 65.1399C68.7812 65.9895 67.893 66.4143 66.7688 66.4143C65.6875 66.4143 64.7564 66.1139 63.9755 65.5132C63.1946 64.9125 62.6325 64.0887 62.2892 63.0417C62.0318 62.235 61.9031 61.2996 61.9031 60.2355C61.9031 59.1371 62.0404 58.1802 62.315 57.365C62.6754 56.3695 63.2375 55.5843 64.0013 55.0094C64.765 54.4258 65.709 54.134 66.8332 54.134C67.9488 54.134 68.8155 54.5202 69.4334 55.2926C69.4591 55.344 69.4892 55.3612 69.5235 55.344C69.5578 55.3269 69.575 55.2968 69.575 55.2539V50.2981ZM69.0858 62.6169C69.3948 62.0505 69.5492 61.2696 69.5492 60.2741C69.5492 59.2444 69.3776 58.4334 69.0343 57.8413C68.6825 57.2406 68.1676 56.9402 67.4897 56.9402C66.7602 56.9402 66.211 57.2406 65.842 57.8413C65.4558 58.4506 65.2627 59.2701 65.2627 60.2999C65.2627 61.2267 65.4258 61.999 65.7519 62.6169C66.1381 63.2863 66.7087 63.621 67.4639 63.621C68.159 63.621 68.6997 63.2863 69.0858 62.6169ZM85.8327 59.0513C85.9271 59.6348 85.9572 60.2913 85.9228 61.0207C85.9143 61.2095 85.8156 61.3039 85.6268 61.3039H78.4698C78.3754 61.3039 78.3453 61.3426 78.3797 61.4198C78.4226 61.7287 78.5041 62.0377 78.6242 62.3466C79.0276 63.2048 79.8471 63.6338 81.0829 63.6338C82.0697 63.6252 82.8507 63.2262 83.4256 62.4367C83.4857 62.3423 83.5543 62.2951 83.6316 62.2951C83.6831 62.2951 83.7388 62.3251 83.7989 62.3852L85.4594 64.0329C85.5367 64.1101 85.5753 64.1788 85.5753 64.2388C85.5753 64.2732 85.5453 64.3375 85.4852 64.4319C84.9789 65.0584 84.3224 65.5475 83.5157 65.8994C82.7176 66.2426 81.838 66.4143 80.8769 66.4143C79.5468 66.4143 78.4226 66.1139 77.5043 65.5132C76.5861 64.9125 75.9253 64.0715 75.522 62.9902C75.1959 62.2179 75.0328 61.2052 75.0328 59.9523C75.0328 59.1028 75.1487 58.3562 75.3804 57.7126C75.7408 56.6141 76.363 55.7388 77.2469 55.0866C78.1394 54.443 79.1949 54.1212 80.4135 54.1212C81.9582 54.1212 83.1982 54.5674 84.1336 55.4599C85.069 56.3524 85.6354 57.5495 85.8327 59.0513ZM80.4392 56.9402C79.4609 56.9402 78.8173 57.395 78.5084 58.3047C78.4483 58.5106 78.3968 58.7595 78.3539 59.0513C78.3539 59.1285 78.3925 59.1671 78.4698 59.1671H82.4731C82.5675 59.1671 82.5975 59.1285 82.5632 59.0513C82.4859 58.605 82.4473 58.3905 82.4473 58.4077C82.31 57.9443 82.0697 57.5838 81.7265 57.3264C81.3746 57.0689 80.9455 56.9402 80.4392 56.9402ZM93.878 54.1598C94.4358 54.1598 94.8734 54.2671 95.1909 54.4816C95.3197 54.5502 95.3669 54.6661 95.3325 54.8291L94.8434 57.4809C94.8348 57.6611 94.7275 57.7126 94.5216 57.6353C94.2899 57.5581 94.0196 57.5195 93.7106 57.5195C93.5905 57.5195 93.4231 57.5366 93.2086 57.571C92.6508 57.6139 92.1788 57.8155 91.7926 58.176C91.4065 58.545 91.2134 59.0298 91.2134 59.6305V65.9509C91.2134 66.0281 91.1876 66.0967 91.1362 66.1568C91.0761 66.2083 91.0074 66.234 90.9302 66.234H88.227C88.1498 66.234 88.0811 66.2083 88.021 66.1568C87.9696 66.0967 87.9438 66.0281 87.9438 65.9509V54.5974C87.9438 54.5202 87.9696 54.4559 88.021 54.4044C88.0811 54.3529 88.1498 54.3271 88.227 54.3271H90.9302C91.0074 54.3271 91.0761 54.3529 91.1362 54.4044C91.1876 54.4559 91.2134 54.5202 91.2134 54.5974V55.4856C91.2134 55.5285 91.2263 55.5586 91.252 55.5757C91.2863 55.5929 91.3121 55.5843 91.3292 55.55C91.9643 54.6232 92.8138 54.1598 93.878 54.1598Z" fill="#252530"/>
<path d="M40.1617 86.0575C40.0673 86.0575 40.0072 86.0146 39.9815 85.9288L37.6387 77.2142L37.6259 77.1627C37.6259 77.0855 37.6731 77.0469 37.7675 77.0469H39.0289C39.1233 77.0469 39.1834 77.0898 39.2092 77.1756L40.6766 83.0454C40.6852 83.0711 40.6981 83.084 40.7152 83.084C40.7324 83.084 40.7453 83.0711 40.7538 83.0454L42.1569 77.1756C42.1827 77.0898 42.2384 77.0469 42.3243 77.0469H43.56C43.6544 77.0469 43.7145 77.0898 43.7402 77.1756L45.2334 83.0583C45.242 83.084 45.2549 83.0969 45.272 83.0969C45.2892 83.0969 45.3021 83.084 45.3106 83.0583L46.7523 77.1756C46.7781 77.0898 46.8382 77.0469 46.9326 77.0469H48.1297C48.2498 77.0469 48.297 77.1027 48.2713 77.2142L46.0444 85.9288C46.0186 86.0146 45.9585 86.0575 45.8642 86.0575H44.667C44.5726 86.0575 44.5126 86.0146 44.4868 85.9288L42.9807 79.7887C42.9722 79.7629 42.9593 79.7458 42.9421 79.7372C42.925 79.7372 42.9121 79.7544 42.9035 79.7887L41.4618 85.9288C41.4361 86.0146 41.3803 86.0575 41.2945 86.0575H40.1617ZM49.7001 86.0575C49.6572 86.0575 49.6186 86.0403 49.5843 86.006C49.5585 85.9803 49.5456 85.946 49.5456 85.903V77.2013C49.5456 77.1584 49.5585 77.1241 49.5843 77.0984C49.6186 77.064 49.6572 77.0469 49.7001 77.0469H50.8844C50.9273 77.0469 50.9616 77.064 50.9873 77.0984C51.0217 77.1241 51.0388 77.1584 51.0388 77.2013V85.903C51.0388 85.946 51.0217 85.9803 50.9873 86.006C50.9616 86.0403 50.9273 86.0575 50.8844 86.0575H49.7001ZM58.1572 77.2013C58.1572 77.1584 58.1701 77.1241 58.1959 77.0984C58.2302 77.064 58.2688 77.0469 58.3117 77.0469H59.496C59.5389 77.0469 59.5732 77.064 59.5989 77.0984C59.6333 77.1241 59.6504 77.1584 59.6504 77.2013V85.903C59.6504 85.946 59.6333 85.9803 59.5989 86.006C59.5732 86.0403 59.5389 86.0575 59.496 86.0575H58.3503C58.2645 86.0575 58.2044 86.0232 58.1701 85.9545L54.4629 79.8788C54.4457 79.853 54.4285 79.8402 54.4114 79.8402C54.3942 79.8488 54.3856 79.8702 54.3856 79.9045L54.4114 85.903C54.4114 85.946 54.3942 85.9803 54.3599 86.006C54.3342 86.0403 54.2998 86.0575 54.2569 86.0575H53.0727C53.0298 86.0575 52.9911 86.0403 52.9568 86.006C52.9311 85.9803 52.9182 85.946 52.9182 85.903V77.2013C52.9182 77.1584 52.9311 77.1241 52.9568 77.0984C52.9911 77.064 53.0298 77.0469 53.0727 77.0469H54.2183C54.3041 77.0469 54.3642 77.0812 54.3985 77.1499L58.0929 83.2256C58.11 83.2513 58.1272 83.2599 58.1444 83.2513C58.1615 83.2513 58.1701 83.2342 58.1701 83.1999L58.1572 77.2013ZM67.4511 77.0469C67.494 77.0469 67.5283 77.064 67.554 77.0984C67.5884 77.1241 67.6055 77.1584 67.6055 77.2013V78.1925C67.6055 78.2354 67.5884 78.2697 67.554 78.2955C67.5283 78.3298 67.494 78.347 67.4511 78.347H65.0826C65.0396 78.347 65.0182 78.3684 65.0182 78.4113V85.903C65.0182 85.946 65.0053 85.9803 64.9796 86.006C64.9452 86.0403 64.9066 86.0575 64.8637 86.0575H63.6795C63.6366 86.0575 63.6022 86.0403 63.5765 86.006C63.5422 85.9803 63.525 85.946 63.525 85.903V78.4113C63.525 78.3684 63.5035 78.347 63.4606 78.347H61.1822C61.1393 78.347 61.1007 78.3298 61.0664 78.2955C61.0406 78.2697 61.0278 78.2354 61.0278 78.1925V77.2013C61.0278 77.1584 61.0406 77.1241 61.0664 77.0984C61.1007 77.064 61.1393 77.0469 61.1822 77.0469H67.4511ZM75.0844 78.1796C75.0844 78.2225 75.0672 78.2569 75.0329 78.2826C75.0071 78.3169 74.9728 78.3341 74.9299 78.3341H70.5404C70.4975 78.3341 70.4761 78.3556 70.4761 78.3985V80.8056C70.4761 80.8485 70.4975 80.87 70.5404 80.87H73.4882C73.5311 80.87 73.5697 80.8828 73.604 80.9086C73.6298 80.9429 73.6427 80.9815 73.6427 81.0244V82.0027C73.6427 82.0456 73.6298 82.0843 73.604 82.1186C73.5697 82.1443 73.5311 82.1572 73.4882 82.1572H70.5404C70.4975 82.1572 70.4761 82.1786 70.4761 82.2216V84.7059C70.4761 84.7488 70.4975 84.7703 70.5404 84.7703H74.9299C74.9728 84.7703 75.0071 84.7874 75.0329 84.8218C75.0672 84.8475 75.0844 84.8818 75.0844 84.9247V85.903C75.0844 85.946 75.0672 85.9803 75.0329 86.006C75.0071 86.0403 74.9728 86.0575 74.9299 86.0575H69.1373C69.0944 86.0575 69.0558 86.0403 69.0215 86.006C68.9957 85.9803 68.9829 85.946 68.9829 85.903V77.2013C68.9829 77.1584 68.9957 77.1241 69.0215 77.0984C69.0558 77.064 69.0944 77.0469 69.1373 77.0469H74.9299C74.9728 77.0469 75.0071 77.064 75.0329 77.0984C75.0672 77.1241 75.0844 77.1584 75.0844 77.2013V78.1796ZM81.6621 86.0575C81.5763 86.0575 81.5162 86.0189 81.4819 85.9417L79.7828 82.2344C79.7656 82.2001 79.7399 82.1829 79.7055 82.1829H78.1609C78.1179 82.1829 78.0965 82.2044 78.0965 82.2473V85.903C78.0965 85.946 78.0793 85.9803 78.045 86.006C78.0193 86.0403 77.9849 86.0575 77.942 86.0575H76.7578C76.7149 86.0575 76.6762 86.0403 76.6419 86.006C76.6162 85.9803 76.6033 85.946 76.6033 85.903V77.2013C76.6033 77.1584 76.6162 77.1241 76.6419 77.0984C76.6762 77.064 76.7149 77.0469 76.7578 77.0469H80.2977C80.8211 77.0469 81.2845 77.1541 81.6879 77.3687C82.0912 77.5918 82.4044 77.9007 82.6276 78.2955C82.8507 78.6988 82.9622 79.1579 82.9622 79.6728C82.9622 80.265 82.8078 80.767 82.4988 81.1789C82.1985 81.5994 81.778 81.8912 81.2373 82.0542C81.2202 82.0542 81.2073 82.0628 81.1987 82.08C81.1901 82.0971 81.1901 82.1143 81.1987 82.1314L83.0137 85.8773C83.0309 85.9116 83.0395 85.9374 83.0395 85.9545C83.0395 86.0232 82.9923 86.0575 82.8979 86.0575H81.6621ZM78.1609 78.3341C78.1179 78.3341 78.0965 78.3556 78.0965 78.3985V80.9601C78.0965 81.003 78.1179 81.0244 78.1609 81.0244H80.0917C80.5036 81.0244 80.8383 80.9 81.0957 80.6511C81.3446 80.4108 81.469 80.089 81.469 79.6857C81.469 79.2824 81.3446 78.9563 81.0957 78.7074C80.8383 78.4585 80.5036 78.3341 80.0917 78.3341H78.1609Z" fill="white"/>
<path d="M45.5939 109.305C45.5681 109.331 45.5596 109.356 45.5681 109.382C45.5853 109.408 45.611 109.421 45.6454 109.421H50.7042C50.7643 109.421 50.8158 109.442 50.8587 109.485C50.9102 109.528 50.9359 109.58 50.9359 109.64V111.455C50.9359 111.515 50.9102 111.566 50.8587 111.609C50.8158 111.652 50.7643 111.674 50.7042 111.674H42.3114C42.2428 111.674 42.187 111.652 42.1441 111.609C42.1012 111.566 42.0797 111.515 42.0797 111.455V109.73C42.0797 109.618 42.1184 109.524 42.1956 109.447C42.8049 108.854 43.427 108.207 44.0621 107.503C44.6971 106.799 45.0962 106.362 45.2592 106.19C45.6025 105.778 45.9543 105.383 46.3147 105.006C47.4475 103.753 48.0139 102.822 48.0139 102.212C48.0139 101.775 47.8594 101.414 47.5505 101.131C47.2415 100.856 46.8382 100.719 46.3405 100.719C45.8428 100.719 45.4394 100.856 45.1305 101.131C44.813 101.414 44.6542 101.788 44.6542 102.251V102.714C44.6542 102.774 44.6328 102.826 44.5898 102.869C44.5469 102.912 44.4954 102.933 44.4354 102.933H42.2342C42.1741 102.933 42.1226 102.912 42.0797 102.869C42.0282 102.826 42.0025 102.774 42.0025 102.714V101.839C42.0454 101.17 42.2599 100.573 42.6461 100.05C43.0323 99.5349 43.5429 99.1401 44.1779 98.8655C44.8215 98.5909 45.5424 98.4536 46.3405 98.4536C47.2244 98.4536 47.9924 98.621 48.6446 98.9556C49.2968 99.2817 49.7989 99.7237 50.1507 100.281C50.5111 100.848 50.6913 101.47 50.6913 102.148C50.6913 102.671 50.5583 103.208 50.2923 103.757C50.0348 104.306 49.6444 104.898 49.1209 105.533C48.7347 106.014 48.3185 106.495 47.8723 106.975C47.426 107.447 46.761 108.129 45.8771 109.022L45.5939 109.305ZM56.9988 111.879C55.6257 111.879 54.5445 111.498 53.755 110.734C52.9569 109.97 52.5578 108.927 52.5578 107.606V102.676C52.5578 101.38 52.9569 100.354 53.755 99.5993C54.5445 98.8355 55.6257 98.4536 56.9988 98.4536C58.3632 98.4536 59.4488 98.8355 60.2555 99.5993C61.0536 100.354 61.4526 101.38 61.4526 102.676V107.606C61.4526 108.927 61.0536 109.97 60.2555 110.734C59.4488 111.498 58.3632 111.879 56.9988 111.879ZM56.9988 109.627C57.5566 109.627 57.9985 109.455 58.3246 109.112C58.6593 108.769 58.8267 108.31 58.8267 107.735V102.599C58.8267 102.032 58.6593 101.577 58.3246 101.234C57.9985 100.891 57.5566 100.719 56.9988 100.719C56.4496 100.719 56.0119 100.891 55.6858 101.234C55.3511 101.577 55.1838 102.032 55.1838 102.599V107.735C55.1838 108.31 55.3511 108.769 55.6858 109.112C56.0119 109.455 56.4496 109.627 56.9988 109.627ZM66.6788 109.305C66.653 109.331 66.6487 109.356 66.6659 109.382C66.6745 109.408 66.7002 109.421 66.7431 109.421H71.802C71.862 109.421 71.9135 109.442 71.9564 109.485C71.9993 109.528 72.0208 109.58 72.0208 109.64V111.455C72.0208 111.515 71.9993 111.566 71.9564 111.609C71.9135 111.652 71.862 111.674 71.802 111.674H63.3963C63.3363 111.674 63.2848 111.652 63.2419 111.609C63.199 111.566 63.1775 111.515 63.1775 111.455V109.73C63.1775 109.618 63.2118 109.524 63.2805 109.447C63.8984 108.854 64.5205 108.207 65.147 107.503C65.782 106.799 66.1811 106.362 66.3441 106.19C66.6959 105.778 67.0521 105.383 67.4125 105.006C68.5453 103.753 69.1117 102.822 69.1117 102.212C69.1117 101.775 68.9572 101.414 68.6483 101.131C68.3307 100.856 67.9231 100.719 67.4254 100.719C66.9276 100.719 66.5243 100.856 66.2154 101.131C65.9064 101.414 65.752 101.788 65.752 102.251V102.714C65.752 102.774 65.7305 102.826 65.6876 102.869C65.6447 102.912 65.5889 102.933 65.5203 102.933H63.3191C63.259 102.933 63.2075 102.912 63.1646 102.869C63.1217 102.826 63.1003 102.774 63.1003 102.714V101.839C63.1346 101.17 63.3448 100.573 63.731 100.05C64.1172 99.5349 64.6321 99.1401 65.2757 98.8655C65.9193 98.5909 66.6359 98.4536 67.4254 98.4536C68.3093 98.4536 69.0773 98.621 69.7295 98.9556C70.3903 99.2817 70.8966 99.7237 71.2485 100.281C71.6003 100.848 71.7762 101.47 71.7762 102.148C71.7762 102.671 71.6475 103.208 71.3901 103.757C71.124 104.306 70.7293 104.898 70.2058 105.533C69.8196 106.014 69.4034 106.495 68.9572 106.975C68.5109 107.447 67.8459 108.129 66.962 109.022L66.6788 109.305ZM75.4706 98.6596C75.5392 98.6252 75.6336 98.6081 75.7538 98.6081H78.0193C78.0794 98.6081 78.1309 98.6295 78.1738 98.6724C78.2167 98.7154 78.2381 98.7668 78.2381 98.8269V111.455C78.2381 111.515 78.2167 111.566 78.1738 111.609C78.1309 111.652 78.0794 111.674 78.0193 111.674H75.831C75.7709 111.674 75.7195 111.652 75.6765 111.609C75.6251 111.566 75.5993 111.515 75.5993 111.455V101.221C75.5993 101.195 75.5907 101.17 75.5736 101.144C75.5478 101.118 75.5221 101.114 75.4963 101.131L73.6427 101.633L73.5655 101.646C73.4539 101.646 73.3981 101.577 73.3981 101.44L73.3467 99.8438C73.3467 99.7151 73.4024 99.625 73.514 99.5735L75.4706 98.6596Z" fill="#252530"/>
</svg>
