<svg width="85" height="34" viewBox="0 0 85 34" fill="none" xmlns="http://www.w3.org/2000/svg">
<path fill-rule="evenodd" clip-rule="evenodd" d="M65.6224 33.2311L65.7842 3.21609C65.7905 2.04866 66.742 1.09707 67.9094 1.09066C69.0768 1.08425 70.0181 2.02544 70.0118 3.19287L69.85 33.2079L65.6224 33.2311Z" fill="#0066FF"/>
<path fill-rule="evenodd" clip-rule="evenodd" d="M58.8248 33.2685L58.9318 13.4309C58.9381 12.2635 59.8896 11.3119 61.057 11.3055C62.2244 11.2991 63.1657 12.2403 63.1594 13.4077L63.0525 33.2453L58.8248 33.2685Z" fill="#96C0FF"/>
<path fill-rule="evenodd" clip-rule="evenodd" d="M51.0608 33.3111L51.2 7.48686C51.2063 6.31942 52.1578 5.36782 53.3252 5.36141C54.4926 5.355 55.4339 6.29619 55.4276 7.46363L55.2884 33.2879L51.0608 33.3111Z" fill="#0066FF"/>
<path fill-rule="evenodd" clip-rule="evenodd" d="M44.2628 33.3485L44.3374 19.4977C44.3437 18.3303 45.2952 17.3787 46.4627 17.3723C47.6301 17.3659 48.5714 18.3071 48.5651 19.4745L48.4904 33.3253L44.2628 33.3485Z" fill="#96C0FF"/>
<path fill-rule="evenodd" clip-rule="evenodd" d="M36.4992 33.3911L36.6169 11.558C36.6232 10.3906 37.5747 9.43899 38.7421 9.43258C39.9096 9.42616 40.8509 10.3674 40.8446 11.5348L40.7269 33.3679L36.4992 33.3911Z" fill="#0066FF"/>
<path fill-rule="evenodd" clip-rule="evenodd" d="M29.7016 33.4284L29.787 17.5821C29.7933 16.4146 30.7448 15.463 31.9122 15.4566C33.0796 15.4502 34.0209 16.3914 34.0146 17.5588L33.9292 33.4052L29.7016 33.4284Z" fill="#96C0FF"/>
<path fill-rule="evenodd" clip-rule="evenodd" d="M21.9379 33.4711L22.0879 5.65127C22.0942 4.48384 23.0456 3.53225 24.2131 3.52584C25.3805 3.51943 26.3218 4.46062 26.3155 5.62805L26.1655 33.4479L21.9379 33.4711Z" fill="#0066FF"/>
<path fill-rule="evenodd" clip-rule="evenodd" d="M15.1404 33.509L15.2688 9.68033C15.2751 8.51289 16.2266 7.5613 17.394 7.55489C18.5615 7.54848 19.5028 8.48967 19.4965 9.6571L19.368 33.4858L15.1404 33.509Z" fill="#96C0FF"/>
<path fill-rule="evenodd" clip-rule="evenodd" d="M80.135 33.1514L80.2965 3.18556C80.303 1.99098 81.2766 1.01726 82.4712 1.0107C83.6658 1.00414 84.6289 1.96722 84.6225 3.1618L84.461 33.1276L80.135 33.1514Z" fill="#0066FF"/>
<path fill-rule="evenodd" clip-rule="evenodd" d="M73.3375 33.1887L73.4119 19.3871C73.4183 18.1925 74.392 17.2188 75.5865 17.2122C76.7811 17.2057 77.7443 18.1688 77.7379 19.3633L77.6635 33.165L73.3375 33.1887Z" fill="#96C0FF"/>
<path fill-rule="evenodd" clip-rule="evenodd" d="M7.37607 33.5511L7.50452 9.72244C7.51081 8.55501 8.4623 7.60342 9.62973 7.59701C10.7972 7.59059 11.7385 8.53179 11.7322 9.69922L11.6037 33.5279L7.37607 33.5511Z" fill="#0066FF"/>
<path fill-rule="evenodd" clip-rule="evenodd" d="M0.578201 33.5885L0.652861 19.7377C0.659154 18.5703 1.61065 17.6187 2.77808 17.6123C3.94551 17.6059 4.8868 18.547 4.8805 19.7145L4.80584 33.5653L0.578201 33.5885Z" fill="#96C0FF"/>
</svg>
