<svg width="104" height="118" viewBox="0 0 104 118" fill="none" xmlns="http://www.w3.org/2000/svg">
<path d="M55.445 12.3064C59.0276 22.4051 70.753 20.8854 78.7093 18.7284C80.6173 18.1891 82.5716 17.6008 84.2931 16.5713C86.0145 15.5419 87.4568 13.8751 88.0152 11.8652C88.6199 9.61008 87.9219 7.1099 86.7125 5.149C85.5958 3.33515 83.967 1.42325 82.2455 0.2467C81.5012 2.25665 78.8489 2.40371 77.0341 2.40371C74.4751 2.40371 72.1489 1.37423 69.7758 0.638885C67.3564 -0.0964617 64.7504 -0.243531 62.3309 0.442792C57.4457 1.66836 53.5371 6.91383 55.445 12.3064Z" fill="#645DD3"/>
<path d="M62.7497 79.9093C62.6101 79.9093 62.5638 79.9093 62.4705 79.9582L62.7497 79.9093Z" fill="#645DD3"/>
<path d="M62.7497 79.9093C62.6101 79.9093 62.5638 79.9093 62.4705 79.9582L62.7497 79.9093Z" fill="#645DD3"/>
<path d="M52.4203 30.739V21.2775C52.4203 13.2378 59.5397 6.6687 68.2403 6.6687C72.5677 6.6687 76.5227 8.28644 79.4073 10.9337C82.2924 13.5809 84.0603 17.2087 84.0603 21.2285V30.6899" stroke="#6B6B6B" stroke-width="1.78794" stroke-miterlimit="10"/>
<path d="M84.0603 40.9849V51.917C84.0603 59.9568 76.9415 66.526 68.2403 66.526C59.5397 66.526 52.4203 59.9568 52.4203 51.917V40.9849" stroke="#6B6B6B" stroke-width="1.78794" stroke-miterlimit="10"/>
<path d="M58.8415 44.3674C63.2868 44.3674 66.891 40.5704 66.891 35.8865C66.891 31.2025 63.2868 27.4055 58.8415 27.4055C54.3956 27.4055 50.792 31.2025 50.792 35.8865C50.792 40.5704 54.3956 44.3674 58.8415 44.3674Z" stroke="#6B6B6B" stroke-width="1.78794" stroke-miterlimit="10"/>
<path d="M77.5925 44.3674C82.0384 44.3674 85.642 40.5704 85.642 35.8865C85.642 31.2025 82.0384 27.4055 77.5925 27.4055C73.1471 27.4055 69.5429 31.2025 69.5429 35.8865C69.5429 40.5704 73.1471 44.3674 77.5925 44.3674Z" stroke="#6B6B6B" stroke-width="1.78794" stroke-miterlimit="10"/>
<path d="M66.8442 35.6414H69.636" stroke="#6B6B6B" stroke-width="3.57588" stroke-miterlimit="10"/>
<path d="M74.7079 65.2023H74.7543V80.5462" stroke="#6B6B6B" stroke-width="1.78794" stroke-miterlimit="10"/>
<path d="M63.122 80.3501V65.5942" stroke="#6B6B6B" stroke-width="1.78794" stroke-miterlimit="10"/>
<path d="M58.8416 37.8474C59.8692 37.8474 60.7026 36.9695 60.7026 35.8864C60.7026 34.8035 59.8692 33.9255 58.8416 33.9255C57.8134 33.9255 56.9806 34.8035 56.9806 35.8864C56.9806 36.9695 57.8134 37.8474 58.8416 37.8474Z" fill="#645DD3"/>
<path d="M77.5923 37.8474C78.6205 37.8474 79.4534 36.9695 79.4534 35.8864C79.4534 34.8035 78.6205 33.9255 77.5923 33.9255C76.5647 33.9255 75.7313 34.8035 75.7313 35.8864C75.7313 36.9695 76.5647 37.8474 77.5923 37.8474Z" fill="#645DD3"/>
<path d="M51.3503 39.0729H50.4195C49.396 39.0729 48.4652 39.5141 47.7672 40.2004C47.1161 40.9358 46.6973 41.9162 46.6973 42.9947C46.6973 45.1517 48.3725 46.9166 50.4195 46.9166H52.2806" stroke="#6B6B6B" stroke-width="1.78794" stroke-miterlimit="10"/>
<path d="M85.0838 39.0729H86.0146C88.0616 39.0729 89.7367 40.8377 89.7367 42.9947C89.7367 44.0732 89.3179 45.0537 88.6199 45.789C87.9689 46.4754 87.0381 46.9166 86.0146 46.9166H84.1536" stroke="#6B6B6B" stroke-width="1.78794" stroke-miterlimit="10"/>
<path d="M52.3275 41.8182V44.1713H50.8384C50.2337 44.1713 49.7216 43.632 49.7216 42.9948C49.7216 42.6516 49.8612 42.3575 50.0472 42.1614C50.2337 41.9653 50.5129 41.8182 50.8384 41.8182H52.3275Z" fill="#645DD3"/>
<path d="M84.1536 44.1713V41.8182H85.6421C86.2474 41.8182 86.7589 42.3575 86.7589 42.9948C86.7589 43.3379 86.6193 43.632 86.4334 43.8282C86.2474 44.0242 85.9682 44.1713 85.6421 44.1713H84.1536Z" fill="#645DD3"/>
<path d="M68.2401 43.9752C68.2401 43.9752 65.9139 47.8971 69.636 46.9166" stroke="#6B6B6B" stroke-width="1.78794" stroke-miterlimit="10" stroke-linecap="round"/>
<path d="M64.0531 55.2996C64.0531 55.2996 67.7752 60.1528 72.8933 55.2996" stroke="#6B6B6B" stroke-width="1.78794" stroke-miterlimit="10" stroke-linecap="round"/>
<path d="M55.2122 25.8367C55.2122 25.8367 57.7712 23.1405 62.1912 25.3465" stroke="#6B6B6B" stroke-width="2.68191" stroke-miterlimit="10" stroke-linecap="round"/>
<path d="M81.2681 25.8367C81.2681 25.8367 78.7091 23.1405 74.289 25.3465" stroke="#6B6B6B" stroke-width="2.68191" stroke-miterlimit="10" stroke-linecap="round"/>
<path d="M52.3275 20.2481C52.3275 20.2481 45.9062 15.0026 48.6981 8.62963C51.49 2.25664 60.3302 5.68825 60.3302 5.68825C60.3302 5.68825 63.8664 21.5717 52.3275 20.2481Z" fill="#645DD3"/>
<path d="M20.4085 59.4179C19.8501 57.506 19.0589 56.5746 18.6401 53.7803C17.7562 48.1917 18.0817 42.8481 15.8951 43.0442C15.0112 43.1423 14.732 44.1227 14.7784 44.662L15.4764 53.4862C15.1972 54.5156 14.6851 54.1235 14.6851 54.1235C14.6851 54.1235 12.871 46.2797 12.6381 44.8581C12.4053 43.4854 11.7542 42.7011 10.8697 42.7991C9.33477 42.9462 9.93949 44.9071 10.0791 45.6425L11.7073 55.1529C11.8469 56.0844 10.9166 55.7902 10.9166 55.7902L7.28719 46.2797C6.86841 45.2503 6.07718 45.4954 6.07718 45.4954C4.6349 45.8385 5.19327 47.2112 5.19327 47.2112L8.31069 57.31C8.31069 57.359 8.31069 57.408 8.31069 57.457C8.35761 57.9963 7.70598 58.2904 7.42679 57.8001C6.44963 56.2314 4.54223 53.7313 2.95976 52.7508C2.16912 52.2606 1.61074 52.3586 1.28521 52.6037C0.959098 52.8488 0.912758 53.29 1.14561 53.6332L6.96167 62.5064C8.31069 71.9189 13.7549 73.0461 13.7549 73.0461L17.0119 86.4788L21.8044 107.656L22.4092 110.353C22.9675 112.951 25.201 114.814 27.7137 114.814H30.2728C32.0869 114.814 33.3433 112.951 32.7849 111.186L21.1991 74.0267L20.6877 70.7911C21.8044 69.468 22.5487 66.6732 22.9212 64.6631C23.1535 63.5848 23.2467 62.4576 23.1535 61.3788C22.9675 58.6826 24.689 53.8293 24.689 53.8293C24.5494 52.8978 22.8743 53.6822 22.8743 53.6822C21.0132 54.3686 20.5481 57.506 20.4085 59.2218C20.3622 59.9572 20.036 60.5945 19.5709 61.0847C16.779 63.9768 16.5468 67.2124 16.5468 67.2124" stroke="#6B6B6B" stroke-width="1.78794" stroke-miterlimit="10"/>
<path d="M12.5918 44.9067C12.359 43.5341 11.9402 42.5046 10.8235 42.8478C9.33491 43.2889 9.89269 44.9557 10.0323 45.691" stroke="#6B6B6B" stroke-width="1.78794" stroke-miterlimit="10"/>
<path d="M103.137 117.51V118H92.9936L90.8534 105.499V118H46.9297V110.892C46.9297 109.176 46.9297 107.46 46.9767 105.745C45.9995 106.577 44.9291 107.264 43.6727 108L33.9486 114.863C33.9017 114.912 33.8553 114.912 33.809 114.96C33.3902 115.206 32.9245 115.353 32.4131 115.353L30.3907 115.433C30.3907 115.433 32.5527 114.568 33.0641 112.411L29.5748 100.156C34.5533 95.7924 42.6029 83.1937 58.0504 80.5956C58.702 80.4485 59.4 80.3013 60.1443 80.203C60.8423 80.1053 61.5403 80.007 62.3309 79.9581L62.8429 79.9093V80.007L62.5638 80.0565C62.657 80.0565 62.7033 80.0565 62.7966 80.007H62.8429C62.9362 80.007 63.0289 80.007 63.1221 79.9581H63.1685L63.6342 79.9093V81.7723C63.6342 82.0171 63.7268 82.3114 63.9597 82.5563C64.6577 83.3897 66.2395 84.0272 68.1475 84.1744C68.4731 84.2232 68.7986 84.2232 69.1241 84.2232C69.171 84.2232 69.2174 84.2232 69.2174 84.2232H69.2637C71.1253 84.1744 72.8468 83.6352 73.7307 82.8506C74.0099 82.6057 74.2891 82.2626 74.2891 81.7723V80.0565L74.7542 80.1541H74.8475C74.9871 80.1541 75.0803 80.203 75.2199 80.203V80.0565L75.8246 80.1541C92.9009 82.3603 103.137 96.3321 103.137 117.51Z" fill="#645DD3"/>
<path d="M33.9018 114.813L33.7622 114.912C33.8091 114.912 33.8554 114.863 33.9018 114.813Z" fill="#645DD3"/>
</svg>
