<svg width="37" height="39" viewBox="0 0 37 39" fill="none" xmlns="http://www.w3.org/2000/svg">
<path d="M27.836 19.5689L27.8276 19.5772C28.0739 19.5494 28.3147 19.6632 28.4467 19.8699C28.5788 20.0765 28.5788 20.3395 28.4467 20.5461C28.3147 20.7528 28.0739 20.8666 27.8276 20.8388H26.8646V23.3539C26.86 25.6701 24.9544 27.5466 22.6022 27.5511H21.8988C21.5427 27.5511 21.254 27.2669 21.254 26.9162C21.254 26.5655 21.5427 26.2812 21.8988 26.2812H22.6022C23.3936 26.2878 24.1549 25.9835 24.7176 25.4355C25.2803 24.8876 25.5979 24.1414 25.6001 23.3621V20.8388H11.7915V23.3127C11.7915 24.9262 13.1173 26.2355 14.7558 26.24H15.4844C15.8405 26.24 16.1292 26.5243 16.1292 26.875C16.1292 27.2256 15.8405 27.5099 15.4844 27.5099H14.781C12.4302 27.5054 10.527 25.6275 10.527 23.3127V20.8388H9.497C9.14089 20.8388 8.8522 20.5546 8.8522 20.2039C8.8522 19.8532 9.14089 19.5689 9.497 19.5689H27.836ZM20.3496 22.5375L20.4371 22.5433C20.7519 22.5854 20.9944 22.851 20.9944 23.1725C20.9944 23.5231 20.7058 23.8074 20.3496 23.8074H16.7488C16.3927 23.8074 16.1041 23.5231 16.1041 23.1725C16.1086 22.8205 16.3997 22.5375 16.7572 22.5375H20.3496ZM22.6022 11.4383C23.737 11.4317 24.8276 11.871 25.6324 12.6589C26.4372 13.4467 26.8897 14.5181 26.8897 15.6356V16.5839L26.8838 16.67C26.8411 16.9799 26.5714 17.2188 26.2449 17.2188C25.8888 17.2188 25.6001 16.9345 25.6001 16.5839V15.6356C25.6002 14.8549 25.2835 14.1065 24.7206 13.5568C24.1576 13.0071 23.395 12.7016 22.6022 12.7082H21.9072C21.5511 12.7082 21.2624 12.4239 21.2624 12.0733C21.2624 11.7226 21.5511 11.4383 21.9072 11.4383H22.6022ZM15.4676 11.4383C15.8237 11.4383 16.1124 11.7226 16.1124 12.0733C16.1124 12.4239 15.8237 12.7082 15.4676 12.7082H14.7642C13.1224 12.7082 11.7915 14.0188 11.7915 15.6356V16.5839L11.7834 16.6833C11.7621 16.8141 11.699 16.9357 11.6021 17.0299C11.4809 17.1477 11.3169 17.2128 11.1467 17.2106C10.8036 17.1974 10.5312 16.9219 10.527 16.5839V15.6356C10.5224 13.3252 12.4181 11.4474 14.7642 11.4383H15.4676ZM16.6659 15.8184L16.7572 15.8252H20.3413C20.6669 15.8619 20.9127 16.1333 20.9127 16.456C20.9127 16.7788 20.6669 17.0501 20.3413 17.0869H16.707C16.4607 17.1034 16.2264 16.9799 16.1037 16.7689C15.981 16.558 15.9914 16.2965 16.1305 16.0957C16.2696 15.8948 16.513 15.7898 16.7572 15.8252L16.6659 15.8184Z" fill="white"/>
<path d="M27.836 19.5689L27.8276 19.5772C28.0739 19.5494 28.3147 19.6632 28.4467 19.8699C28.5788 20.0765 28.5788 20.3395 28.4467 20.5461C28.3147 20.7528 28.0739 20.8666 27.8276 20.8388H26.8646V23.3539C26.86 25.6701 24.9544 27.5466 22.6022 27.5511H21.8988C21.5427 27.5511 21.254 27.2669 21.254 26.9162C21.254 26.5655 21.5427 26.2812 21.8988 26.2812H22.6022C23.3936 26.2878 24.1549 25.9835 24.7176 25.4355C25.2803 24.8876 25.5979 24.1414 25.6001 23.3621V20.8388H11.7915V23.3127C11.7915 24.9262 13.1173 26.2355 14.7558 26.24H15.4844C15.8405 26.24 16.1292 26.5243 16.1292 26.875C16.1292 27.2256 15.8405 27.5099 15.4844 27.5099H14.781C12.4302 27.5054 10.527 25.6275 10.527 23.3127V20.8388H9.497C9.14089 20.8388 8.8522 20.5546 8.8522 20.2039C8.8522 19.8532 9.14089 19.5689 9.497 19.5689H27.836ZM20.3496 22.5375L20.4371 22.5433C20.7519 22.5854 20.9944 22.851 20.9944 23.1725C20.9944 23.5231 20.7058 23.8074 20.3496 23.8074H16.7488C16.3927 23.8074 16.1041 23.5231 16.1041 23.1725C16.1086 22.8205 16.3997 22.5375 16.7572 22.5375H20.3496ZM22.6022 11.4383C23.737 11.4317 24.8276 11.871 25.6324 12.6589C26.4372 13.4467 26.8897 14.5181 26.8897 15.6356V16.5839L26.8838 16.67C26.8411 16.9799 26.5714 17.2188 26.2449 17.2188C25.8888 17.2188 25.6001 16.9345 25.6001 16.5839V15.6356C25.6002 14.8549 25.2835 14.1065 24.7206 13.5568C24.1576 13.0071 23.395 12.7016 22.6022 12.7082H21.9072C21.5511 12.7082 21.2624 12.4239 21.2624 12.0733C21.2624 11.7226 21.5511 11.4383 21.9072 11.4383H22.6022ZM15.4676 11.4383C15.8237 11.4383 16.1124 11.7226 16.1124 12.0733C16.1124 12.4239 15.8237 12.7082 15.4676 12.7082H14.7642C13.1224 12.7082 11.7915 14.0188 11.7915 15.6356V16.5839L11.7834 16.6833C11.7621 16.8141 11.699 16.9357 11.6021 17.0299C11.4809 17.1477 11.3169 17.2128 11.1467 17.2106C10.8036 17.1974 10.5312 16.9219 10.527 16.5839V15.6356C10.5224 13.3252 12.4181 11.4474 14.7642 11.4383H15.4676ZM16.6659 15.8184L16.7572 15.8252H20.3413C20.6669 15.8619 20.9127 16.1333 20.9127 16.456C20.9127 16.7788 20.6669 17.0501 20.3413 17.0869H16.707C16.4607 17.1034 16.2264 16.9799 16.1037 16.7689C15.981 16.558 15.9914 16.2965 16.1305 16.0957C16.2696 15.8948 16.513 15.7898 16.7572 15.8252L16.6659 15.8184Z" fill="white" fill-opacity="0.54"/>
<rect x="0.75" y="0.75" width="35.5" height="37.4893" rx="11.25" stroke="white" stroke-width="1.5"/>
</svg>
