<svg width="67" height="42" viewBox="0 0 67 42" fill="none" xmlns="http://www.w3.org/2000/svg">
<path d="M3.31256 40.5418C1.97006 40.8177 0.669855 39.9541 0.515735 38.5942C0.0431319 34.4242 0.341003 30.1849 1.40169 26.0965C2.67067 21.2053 4.99901 16.6553 8.21464 12.7827C11.4303 8.91019 15.451 5.81408 19.9796 3.72324C24.5083 1.6324 29.4291 0.600288 34.3783 0.703181C39.3276 0.806074 44.1788 2.04134 48.5734 4.31769C52.968 6.59404 56.7936 9.85327 59.7676 13.8545C62.7416 17.8558 64.7878 22.4967 65.7551 27.4344C66.5599 31.5428 66.6007 35.7692 65.8831 39.8962C65.6439 41.2723 64.2607 42.1072 62.9219 41.7722C61.6091 41.4438 60.8339 40.112 61.0541 38.7604C61.6097 35.3502 61.5577 31.8653 60.8936 28.475C60.0714 24.278 58.3321 20.3332 55.8042 16.9321C53.2763 13.5311 50.0245 10.7607 46.2891 8.82581C42.5537 6.89091 38.4302 5.84093 34.2233 5.75347C30.0164 5.66602 25.8338 6.54331 21.9844 8.32052C18.1351 10.0977 14.7175 12.7294 11.9842 16.0211C9.2509 19.3128 7.2718 23.1803 6.19318 27.3378C5.32382 30.6887 5.05733 34.1589 5.39954 37.5805C5.53621 38.9469 4.65926 40.2652 3.31256 40.5418Z" fill="#0066FF"/>
</svg>
