<svg width="16" height="20" viewBox="0 0 16 20" fill="none" xmlns="http://www.w3.org/2000/svg">
<path d="M12.157 5.57097L12.157 5.57026C12.1529 4.70319 11.4488 3.99807 10.5841 3.99807H2.21625C1.34823 3.99807 0.64335 4.70295 0.64335 5.57097V17.5771C0.64335 18.4451 1.34823 19.15 2.21625 19.15H10.5841C11.4521 19.15 12.157 18.4451 12.157 17.5771L12.157 5.57097ZM10.858 17.5734C10.858 17.7265 10.7334 17.851 10.5804 17.851H2.21256C2.05948 17.851 1.93495 17.7265 1.93495 17.5734V5.57097C1.93495 5.41789 2.05948 5.29336 2.21256 5.29336H10.5804C10.7334 5.29336 10.858 5.41789 10.858 5.57097V17.5734Z" fill="#1B1D28" stroke="#1B1D28" stroke-width="0.3"/>
<path d="M13.7837 0.85H5.41592C4.5479 0.85 3.84302 1.55488 3.84302 2.4229C3.84302 2.78221 4.13135 3.07054 4.49067 3.07054C4.84998 3.07054 5.13831 2.78221 5.13831 2.4229C5.13831 2.26982 5.26284 2.14529 5.41592 2.14529H13.7837C13.9368 2.14529 14.0613 2.26982 14.0613 2.4229V14.429C14.0613 14.5821 13.9368 14.7066 13.7837 14.7066C13.4244 14.7066 13.1361 14.995 13.1361 15.3543C13.1361 15.7136 13.4244 16.0019 13.7837 16.0019C14.6517 16.0019 15.3566 15.2971 15.3566 14.429V2.4229C15.3566 1.55488 14.6517 0.85 13.7837 0.85Z" fill="#1B1D28" stroke="#1B1D28" stroke-width="0.3"/>
</svg>
