<svg width="40" height="43" viewBox="0 0 40 43" fill="none" xmlns="http://www.w3.org/2000/svg">
<mask id="mask0" maskUnits="userSpaceOnUse" x="0" y="-1" width="44" height="44">
<path d="M43.5825 21.0928C43.583 23.9314 43.0243 26.7423 41.9383 29.3649C40.8524 31.9876 39.2604 34.3706 37.2534 36.378C35.2464 38.3853 32.8636 39.9776 30.2411 41.064C27.6187 42.1504 24.8079 42.7096 21.9693 42.7096C16.2362 42.7096 10.7379 40.4321 6.68394 36.3782C2.63001 32.3242 0.352539 26.8259 0.352539 21.0928C0.352539 18.2542 0.911698 15.4434 1.99809 12.821C3.08448 10.1985 4.67681 7.81573 6.68416 5.80871C8.69151 3.80169 11.0746 2.20975 13.6972 1.1238C16.3199 0.0378425 19.1307 -0.520856 21.9693 -0.520385C27.7015 -0.520385 33.1989 1.75672 37.2521 5.80998C41.3054 9.86324 43.5825 15.3606 43.5825 21.0928Z" fill="white"/>
</mask>
<g mask="url(#mask0)">
<path d="M29.9538 42.5812C29.9538 42.5812 20.2158 43.4858 10.9701 42.5113C11.0625 42.187 11.1735 41.8683 11.3026 41.5568C11.3193 41.5102 11.3392 41.4603 11.3625 41.4105C11.4456 41.2043 11.5521 40.9715 11.6718 40.722C11.7417 40.5724 11.8248 40.4194 11.9113 40.2597L11.9878 40.1134C12.0144 40.0668 12.0376 40.0269 12.0676 39.9804C12.0837 39.9429 12.1038 39.9072 12.1275 39.8739C12.2073 39.7309 12.3004 39.5879 12.3935 39.4416C12.5598 39.1789 12.746 38.9161 12.9522 38.65C13.0287 38.5503 13.1086 38.4538 13.1884 38.354C13.2682 38.2543 13.3214 38.1944 13.3913 38.1179C13.511 37.9782 13.6407 37.8386 13.777 37.7022C13.9703 37.5036 14.1734 37.3149 14.3857 37.1368C14.4755 37.0636 14.5653 36.9871 14.6617 36.914L14.8014 36.8076C14.8546 36.7643 14.9111 36.7244 14.9677 36.6845L15.3202 36.4351C15.9396 36.0412 16.6113 35.7367 17.3157 35.5304C17.7508 35.4036 18.1958 35.3135 18.646 35.2611C19.0015 35.2192 19.359 35.1981 19.7169 35.1979L20.8976 35.2677C21.2273 35.2127 21.5611 35.186 21.8953 35.1879C22.6044 35.1836 23.3107 35.2776 23.9939 35.4673C24.9325 35.7285 25.8067 36.1815 26.5614 36.7976C26.6878 36.9007 26.8142 37.0071 26.9373 37.1302C26.9971 37.1834 27.0603 37.2432 27.1168 37.3031L27.1634 37.3463L27.2798 37.4661L27.4827 37.6922C27.5858 37.8119 27.6889 37.9383 27.7887 38.068C27.8884 38.1977 27.9616 38.2975 28.0481 38.4206C28.1345 38.5436 28.1678 38.5935 28.2243 38.6833C28.2809 38.7731 28.3141 38.823 28.3574 38.8995C28.4682 39.0791 28.5791 39.2686 28.69 39.4682C28.7831 39.6511 28.8762 39.8407 28.9627 40.0402C28.9926 40.1001 29.0159 40.1566 29.0425 40.2165L29.1256 40.4427L29.2819 40.8484L29.4349 41.2475L29.5081 41.4404L29.6245 41.7464L29.9538 42.5812Z" fill="#AB0048"/>
<path d="M22.3376 36.7943C21.0073 37.9084 18.2103 36.7943 18.2103 36.7943C18.4368 36.3134 18.584 35.799 18.646 35.2711C18.6559 35.2228 18.6626 35.1739 18.6659 35.1247C18.7172 34.7089 18.7372 34.2897 18.7258 33.8709C18.7258 33.6148 18.7258 33.362 18.6859 33.1226C18.6245 32.3663 18.4999 31.6165 18.3134 30.881L21.8853 30.7712C21.6748 31.5317 21.5917 32.3217 21.6392 33.1093C21.6392 33.4718 21.6891 33.831 21.7323 34.1702C21.7756 34.5094 21.8221 34.7689 21.8786 35.0416L21.9086 35.1846C22.0177 35.7296 22.161 36.2672 22.3376 36.7943Z" fill="#CD8B6D"/>
<path d="M27.8021 38.068C27.3332 38.231 26.7578 38.4305 26.1392 38.6268C25.7135 38.7698 25.2712 38.9128 24.8521 39.0425C24.1437 39.286 23.4162 39.4696 22.677 39.5912C22.4941 39.5912 21.6228 39.6411 20.7813 39.681L19.9033 39.7143L19.0054 39.7542C17.9423 39.7296 16.8816 39.6407 15.8292 39.4881C15.7561 39.4881 15.6796 39.4682 15.6097 39.4549C14.6832 39.3411 13.7833 39.0689 12.9491 38.65C13.0256 38.5503 13.1054 38.4538 13.1852 38.354C13.265 38.2543 13.3182 38.1944 13.3881 38.1179C13.5078 37.9782 13.6375 37.8386 13.7739 37.7022C13.9671 37.5036 14.1703 37.3149 14.3825 37.1368C14.4723 37.0636 14.5621 36.9871 14.6585 36.914L14.7982 36.8076C14.8514 36.7643 14.908 36.7244 14.9645 36.6845L15.3204 36.4351C15.9397 36.0412 16.6115 35.7367 17.3158 35.5304C17.751 35.4036 18.196 35.3135 18.6462 35.2611C19.0016 35.2192 19.3592 35.1981 19.7171 35.1979L20.8977 35.2677C21.2274 35.2127 21.5612 35.186 21.8955 35.1879C22.6046 35.1836 23.3108 35.2776 23.9941 35.4673C24.9326 35.7285 25.8068 36.1815 26.5616 36.7976C26.688 36.9007 26.8143 37.0071 26.9374 37.1302C26.9973 37.1834 27.0604 37.2432 27.117 37.3031L27.1635 37.3463L27.28 37.4661L27.4828 37.6922C27.5992 37.8119 27.7023 37.9383 27.8021 38.068Z" fill="#CD8B6D"/>
<path d="M19.9163 39.7143L19.0184 39.7543C17.9553 39.7296 16.8946 39.6407 15.8422 39.4882C15.7691 39.4882 15.6926 39.4682 15.6227 39.4549C15.7878 39.0311 16.0771 38.667 16.4529 38.4106C16.8286 38.1542 17.2731 38.0174 17.728 38.0182C18.2294 38.0173 18.7168 38.1837 19.1131 38.4908C19.5094 38.798 19.7921 39.2285 19.9163 39.7143Z" fill="#E8A287"/>
<path d="M24.8654 39.0425C24.157 39.2861 23.4294 39.4696 22.6903 39.5913C22.5074 39.5913 21.636 39.6412 20.7946 39.6811C20.9252 39.2034 21.2091 38.7819 21.6027 38.4814C21.9963 38.1809 22.4778 38.0182 22.973 38.0182C23.3488 38.018 23.7186 38.1116 24.049 38.2905C24.3795 38.4693 24.6601 38.7278 24.8654 39.0425Z" fill="#E8A287"/>
<path d="M28.6234 21.1363C28.7834 20.9249 29.0002 20.7634 29.2486 20.6707C29.4807 20.5778 29.7213 20.5076 29.967 20.4612C30.4492 20.3648 31.0379 20.3581 31.3804 20.7938C31.5998 21.1287 31.7155 21.5209 31.713 21.9212C31.7862 23.5608 30.406 24.4688 28.9892 24.8579C28.7198 24.9311 28.2542 25.1905 28.0546 24.8812C27.7254 24.3191 28.2209 21.7283 28.6234 21.1363Z" fill="#CD8B6D"/>
<path d="M28.6234 22.3803C28.6234 22.3803 30.3628 20.7706 30.5956 21.6619C30.7215 22.2793 30.6732 22.9195 30.456 23.511C30.456 23.511 30.4859 22.3603 29.5181 22.7727C29.5181 22.7727 29.8506 24.7116 28.3906 23.8104C28.244 23.5859 28.1866 23.3148 28.2296 23.0501C28.2727 22.7855 28.4132 22.5466 28.6234 22.3803Z" fill="#B66C50"/>
<path d="M12.0109 21.1364C11.8509 20.925 11.6341 20.7635 11.3857 20.6708C11.1521 20.581 10.9104 20.5142 10.664 20.4712C10.1817 20.3748 9.59308 20.3681 9.25052 20.8038C9.03119 21.1387 8.91551 21.5309 8.91794 21.9312C8.84477 23.5709 10.2283 24.4788 11.6418 24.8679C11.9112 24.9411 12.3768 25.2005 12.5763 24.8912C12.9122 24.3192 12.42 21.7284 12.0109 21.1364Z" fill="#CD8B6D"/>
<path d="M12.0178 22.3803C12.0178 22.3803 10.2818 20.7706 10.0456 21.6619C9.92008 22.2796 9.96961 22.92 10.1886 23.511C10.1886 23.511 10.1587 22.3603 11.1232 22.7727C11.1232 22.7727 10.7906 24.7116 12.2506 23.8104C12.398 23.5862 12.4559 23.3148 12.4128 23.05C12.3697 22.7851 12.2287 22.5461 12.0178 22.3803Z" fill="#B66C50"/>
<path d="M29.1192 19.7695C29.0859 20.1021 29.0427 20.408 29.0028 20.7306C28.7493 22.7779 28.3784 24.8088 27.892 26.8135C26.9341 30.585 22.268 32.4408 20.6051 32.3111C12.0379 31.1604 11.5922 25.2803 11.652 24.6418C11.7551 23.644 11.5789 22.5565 11.5157 21.5554C11.4791 21.0266 11.4026 20.4812 11.3261 19.9358C11.1594 19.0219 11.1281 18.0884 11.233 17.1654C11.2375 17.1216 11.2453 17.0783 11.2563 17.0357C11.4243 16.1094 11.6919 15.2039 12.0545 14.3351C13.142 11.6745 15.3404 8.72782 18.4799 8.68126C19.2279 8.67529 19.972 8.78753 20.6849 9.01384C21.7194 9.34115 22.7101 9.79348 23.6349 10.3608C25.6105 11.5581 27.5827 12.915 28.5704 15.0901C29.2622 16.6233 29.2888 18.1664 29.1192 19.7695Z" fill="#FFC29C"/>
<path d="M32.8244 15.0801C32.852 15.5166 32.8331 15.9547 32.7679 16.3871C32.7593 16.7932 32.6446 17.1899 32.4353 17.5379C32.2668 17.941 31.9992 18.2951 31.6573 18.5672C31.3155 18.8393 30.9104 19.0206 30.4797 19.0943C30.272 19.1932 30.0348 19.2109 29.8146 19.1442C29.0463 19.111 28.6971 18.7219 28.6273 18.2197C28.4211 17.9567 28.2365 17.6775 28.0752 17.3849C27.7426 18.07 27.1207 18.509 26.2659 18.0933C25.6739 17.8039 25.1019 17.0157 24.7627 16.2142C24.6995 17.182 24.1873 18.2795 23.4324 18.4757C22.1553 18.8083 21.8426 16.9625 21.9757 16.0512C21.6797 17.3616 19.3516 20.1287 18.2807 18.1698C17.7053 17.1188 18.5867 15.6322 19.2352 14.844C19.2917 14.7775 19.3549 14.6976 19.4281 14.6012C19.5965 14.3802 19.7763 14.1681 19.9669 13.966C19.8296 13.9759 19.6917 13.9759 19.5545 13.966C19.3217 13.946 19.0855 13.9094 18.8461 13.8695C17.7718 13.6999 17.9348 14.0591 17.5424 15.0202C17.1499 15.9814 16.232 17.4015 15.0314 16.7197C14.7144 16.51 14.4886 16.1879 14.3995 15.8184C14.17 17.0057 13.5913 18.2197 12.7366 18.8416C12.6517 18.9065 12.5616 18.9644 12.4672 19.0145L12.4173 19.1176C11.8552 20.255 10.6114 21.1131 9.3376 20.6575C7.53834 19.9923 7.07272 17.4547 8.14363 16.0712C8.20105 15.9994 8.2621 15.9306 8.32654 15.865L8.25672 15.8251C7.25897 15.3029 7.20907 14.0691 7.74453 13.078C8.0239 12.5625 8.96511 11.445 9.77328 11.4749C9.79656 9.98497 10.4384 7.97286 12.0382 8.59811C12.0747 8.5449 12.1013 8.48836 12.1379 8.43514C11.5459 7.5405 12.0348 6.4962 12.8729 5.82439C12.9858 5.73235 13.1047 5.64791 13.2288 5.57163L13.2687 5.54835C14.7088 4.67699 16.2619 4.60382 17.4792 5.17585C17.7681 4.66778 18.162 4.22705 18.6345 3.88299C19.107 3.53893 19.6474 3.29941 20.2196 3.18037C21.4735 2.89435 22.6109 3.18037 23.1397 4.47411C23.278 4.84644 23.3652 5.23577 23.3991 5.63149C23.8115 4.4342 25.2349 4.10495 26.5486 4.61712C27.8623 5.1293 28.3845 6.23014 28.3512 7.53718C28.7899 7.61473 29.2162 7.75122 29.6183 7.94293C29.7558 8.00944 29.8922 8.08261 30.0274 8.16243C30.1671 8.24558 30.3068 8.33204 30.4465 8.42849C31.6604 9.26659 32.6914 10.6036 32.8943 12.027C32.9816 12.5398 32.89 13.067 32.6349 13.5203C32.6116 13.5635 32.5883 13.6001 32.565 13.6367C32.6334 13.8547 32.6878 14.0769 32.728 14.3019C32.7779 14.5588 32.8101 14.8188 32.8244 15.0801Z" fill="#4A1D1D"/>
<path d="M10.1818 15.7286C9.5469 16.0322 8.83828 16.1476 8.1398 16.0612C8.19722 15.9894 8.25829 15.9206 8.32274 15.855L8.25289 15.8151C8.70439 15.8824 9.16571 15.8201 9.58321 15.6355C10.3581 15.3362 11.2461 14.8606 11.6685 14.1056C11.908 13.6866 12.3802 12.5259 11.5421 12.343C11.2122 12.2624 10.8661 12.2774 10.5444 12.3862C10.1732 12.4833 9.84033 12.6909 9.58987 12.9815C9.3436 13.2215 9.18641 13.5382 9.1442 13.8795L9.79274 14.3617C9.8124 14.3575 9.83294 14.3602 9.85081 14.3694C9.86868 14.3787 9.88276 14.3939 9.89064 14.4124C9.89852 14.4309 9.8997 14.4516 9.89397 14.4709C9.88824 14.4901 9.87597 14.5068 9.85926 14.518C9.55661 14.7442 9.09764 14.8273 8.94133 14.3617C8.67859 13.5635 9.09431 13.1245 9.66303 12.5991C10.2317 12.0736 11.6585 11.7277 12.1807 12.5226C12.9922 13.783 11.1497 15.3362 10.1818 15.7286Z" fill="#703838"/>
<path d="M15.1107 10.6102C13.2482 9.87854 12.5498 7.73007 12.8657 5.82438C12.9786 5.73234 13.0975 5.6479 13.2216 5.57162L13.2615 5.54834C13.1396 6.02613 13.087 6.51894 13.1052 7.01169C13.1518 8.09258 13.481 9.40295 14.502 9.98496C15.0623 10.3096 15.7179 10.4301 16.357 10.3258C16.9962 10.2215 17.5794 9.89889 18.0074 9.41292C18.1826 7.30215 17.5995 6.69574 16.2581 7.59371C16.1831 7.63953 16.1183 7.70027 16.0678 7.77214C16.0172 7.84402 15.982 7.92551 15.9642 8.01156C15.9464 8.09761 15.9465 8.18639 15.9645 8.27241C15.9824 8.35843 16.0178 8.43985 16.0685 8.51163C16.1038 8.52089 16.1339 8.54379 16.1523 8.57529C16.1707 8.60678 16.1759 8.6443 16.1666 8.67958C16.1573 8.71486 16.1344 8.74502 16.1029 8.76342C16.0714 8.78182 16.0339 8.78695 15.9986 8.77769C14.7548 8.59145 16.7004 5.98402 18.1504 7.05825C20.3588 8.69455 17.0097 11.3585 15.1107 10.6102Z" fill="#703838"/>
<path d="M30.4394 8.41524C30.3578 9.14838 30.1496 9.86181 29.8241 10.5238C28.6568 12.6191 25.168 13.4272 23.1725 11.8907C21.177 10.3542 23.1725 6.50956 25.2079 8.09929C25.8731 8.62477 25.9496 10.2444 25.1647 10.7067C24.5693 11.0559 24.117 10.6402 24.2501 10.0416C24.2644 10.0057 24.2904 9.97563 24.3239 9.95623C24.3573 9.93684 24.3963 9.92921 24.4346 9.93457C24.4729 9.93993 24.5083 9.95797 24.5351 9.9858C24.562 10.0136 24.5787 10.0497 24.5826 10.0881C25.607 8.49839 25.1747 8.04719 23.2856 8.73452C23.0005 9.01416 22.8117 9.37721 22.7466 9.7712C22.6814 10.1652 22.7432 10.5697 22.9231 10.9262C23.1242 11.2053 23.3801 11.4403 23.6752 11.617C23.9702 11.7938 24.2983 11.9084 24.6392 11.9539C25.5405 12.1135 26.7012 12.2499 27.5825 11.924C29.2088 11.3153 29.9106 9.78547 30.007 8.1392C30.16 8.23232 30.2864 8.31879 30.4394 8.41524Z" fill="#703838"/>
<path d="M32.7209 14.2885C32.5925 14.1358 32.4397 14.0054 32.2686 13.9027C31.9357 13.6927 31.5591 13.5616 31.1677 13.5195C30.7762 13.4774 30.3804 13.5255 30.0104 13.6599C29.2521 13.9492 28.5304 14.6344 28.5504 15.5124C28.5353 15.7191 28.578 15.9259 28.6738 16.1098C28.7695 16.2936 28.9145 16.4472 29.0925 16.5533C29.3337 16.6873 29.6048 16.7582 29.8807 16.7595C30.3242 16.7728 30.3785 16.5134 30.0437 15.9813C30.0152 16.0097 29.9782 16.0279 29.9384 16.0331C29.8985 16.0383 29.8581 16.0303 29.8232 16.0102C29.7884 15.9902 29.7612 15.9592 29.7457 15.9221C29.7303 15.885 29.7274 15.8439 29.7377 15.805C30.0902 14.6909 31.8828 16.2507 30.6789 17.0156C29.475 17.7806 27.9484 16.7363 28.0781 15.3527C28.2311 13.7563 29.8641 12.9182 31.3174 13.0613C31.7812 13.1204 32.2274 13.2756 32.6278 13.5169C32.6045 13.5601 32.5813 13.5967 32.558 13.6333C32.6259 13.8481 32.6804 14.0669 32.7209 14.2885Z" fill="#703838"/>
<path d="M21.1304 15.4026C21.0907 15.364 21.0652 15.3132 21.0579 15.2582C21.0507 15.2033 21.0622 15.1476 21.0905 15.1L21.1936 14.9503C21.2155 14.9156 21.2478 14.8888 21.286 14.8737C21.3241 14.8587 21.366 14.8562 21.4057 14.8665C21.4453 14.8769 21.4807 14.8997 21.5065 14.9315C21.5324 14.9633 21.5474 15.0025 21.5495 15.0434C21.5495 15.4891 24.2866 14.947 22.933 13.8462C22.6731 13.6286 22.3441 13.5107 22.0051 13.5136C21.4146 13.5142 20.8329 13.6568 20.309 13.9293C19.9865 14.115 19.6929 14.347 19.4376 14.6177C19.606 14.3967 19.7858 14.1847 19.9764 13.9825C19.8391 13.9925 19.7013 13.9925 19.564 13.9825C19.8222 13.7502 20.1179 13.5635 20.4387 13.4304C21.2302 13.0979 22.5905 12.7353 23.2656 13.5302C24.3897 14.8339 22.0583 16.5733 21.1304 15.4026Z" fill="#703838"/>
<path d="M12.7327 18.8416C12.6527 18.4656 12.4863 18.1133 12.2468 17.8126C12.0073 17.5119 11.7011 17.271 11.3526 17.1089C10.1918 16.4836 9.24067 17.3583 9.13425 18.4924C9.06773 19.2374 9.87922 20.0589 10.4213 19.2174C10.4359 19.1922 10.4436 19.1636 10.4436 19.1345C10.4436 19.1054 10.4361 19.0768 10.4216 19.0516C10.4071 19.0263 10.3862 19.0053 10.3611 18.9906C10.336 18.976 10.3074 18.9682 10.2783 18.968C9.64975 18.968 9.63976 18.6354 9.79608 18.1033C10.2085 16.7064 12.0443 18.1033 12.3337 18.8383C12.371 18.928 12.3977 19.0218 12.4135 19.1177L12.7327 18.8416Z" fill="#703838"/>
<g opacity="0.4">
<path opacity="0.4" d="M26.6847 24.5852C26.6847 25.0808 26.0196 25.4832 25.1915 25.4832C24.3633 25.4832 23.6982 25.0808 23.6982 24.5852C23.6982 24.0897 24.3633 23.6873 25.1915 23.6873C26.0196 23.6873 26.6847 24.0897 26.6847 24.5852Z" fill="#DB5D7B"/>
<path opacity="0.4" d="M16.6777 24.9079C16.6777 25.4034 16.0125 25.8058 15.1844 25.8058C14.3563 25.8058 13.6944 25.4034 13.6944 24.9079C13.6944 24.4123 14.3596 24.0099 15.1844 24.0099C16.0092 24.0099 16.6777 24.4123 16.6777 24.9079Z" fill="#DB5D7B"/>
</g>
<path d="M13.6941 19.7129C13.9732 19.3716 14.3306 19.1027 14.7359 18.929C15.1412 18.7553 15.5824 18.6819 16.0221 18.7152C16.3977 18.7239 16.7655 18.8234 17.0943 19.0051C17.4231 19.1868 17.703 19.4454 17.9101 19.7588C18.1173 20.0721 18.2455 20.4309 18.284 20.8046C18.3224 21.1783 18.2698 21.5557 18.1307 21.9046C18.0941 21.9978 17.9245 21.9978 17.9378 21.878C17.9702 21.6037 17.9453 21.3257 17.8646 21.0615C17.7839 20.7973 17.6493 20.5527 17.4692 20.3433C17.2892 20.1338 17.0676 19.964 16.8185 19.8446C16.5694 19.7253 16.2982 19.6589 16.0221 19.6498C15.7545 19.6442 15.4885 19.6926 15.2399 19.7921C14.9914 19.8915 14.7654 20.0399 14.5754 20.2284C14.1963 20.6043 14.2861 21.163 14.0266 21.5887C14.0024 21.629 13.9693 21.6634 13.9299 21.6891C13.8905 21.7149 13.8458 21.7315 13.7991 21.7375C13.7524 21.7436 13.705 21.7391 13.6603 21.7242C13.6156 21.7094 13.5749 21.6847 13.5411 21.6519C12.9923 21.0932 13.2351 20.2684 13.6941 19.7129Z" fill="#390A0A"/>
<path d="M13.9434 21.3725C13.9456 21.6503 14.0025 21.9249 14.1108 22.1807C14.2191 22.4365 14.3767 22.6684 14.5747 22.8633C14.7727 23.0582 15.0071 23.2122 15.2645 23.3164C15.522 23.4207 15.7975 23.4733 16.0753 23.4711C16.6366 23.4755 17.1767 23.257 17.577 22.8635C17.9773 22.47 18.2052 21.9338 18.2104 21.3725C18.2083 21.0943 18.1513 20.8192 18.0428 20.563C17.9343 20.3068 17.7765 20.0745 17.5782 19.8793C17.3799 19.6841 17.1451 19.5299 16.8873 19.4255C16.6294 19.321 16.3535 19.2684 16.0753 19.2706C15.514 19.267 14.9742 19.4864 14.5745 19.8805C14.1748 20.2746 13.9478 20.8112 13.9434 21.3725Z" fill="white"/>
<path d="M17.4822 21.449C17.4822 22.3935 16.8869 23.1584 16.1519 23.1584C15.4169 23.1584 14.8215 22.3935 14.8215 21.449C14.8215 20.5044 15.4169 19.7395 16.1519 19.7395C16.8869 19.7395 17.4822 20.5044 17.4822 21.449Z" fill="#80422B"/>
<path d="M17.3159 21.449C17.3159 22.2671 16.7971 22.929 16.1619 22.929C15.5267 22.929 15.0045 22.2638 15.0045 21.449C15.0045 20.6342 15.5233 19.969 16.1619 19.969C16.8004 19.969 17.3159 20.6308 17.3159 21.449Z" fill="#390A0A"/>
<path d="M17.1563 20.2983C17.1563 20.4812 16.9402 20.6309 16.6674 20.6309C16.3947 20.6309 16.1786 20.4812 16.1786 20.2983C16.1786 20.1154 16.3981 19.9657 16.6674 19.9657C16.9368 19.9657 17.1563 20.1154 17.1563 20.2983Z" fill="white"/>
<path d="M26.7873 19.5932C26.508 19.2521 26.1506 18.9833 25.7453 18.8096C25.3401 18.6359 24.8989 18.5625 24.4593 18.5955C24.0833 18.604 23.715 18.7034 23.3859 18.8853C23.0568 19.0672 22.7766 19.3262 22.5693 19.64C22.3621 19.9538 22.234 20.3131 22.1959 20.6872C22.1578 21.0613 22.2109 21.4391 22.3507 21.7882C22.3873 21.8814 22.5569 21.8814 22.5436 21.7616C22.5112 21.4873 22.5362 21.2092 22.6168 20.9451C22.6975 20.6809 22.8321 20.4363 23.0122 20.2268C23.1922 20.0174 23.4138 19.8476 23.6629 19.7282C23.912 19.6088 24.1832 19.5425 24.4593 19.5333C24.7267 19.5274 24.9925 19.5753 25.2411 19.6741C25.4896 19.7729 25.7157 19.9207 25.906 20.1087C26.2851 20.4845 26.1953 21.0466 26.4547 21.4723C26.479 21.5126 26.5121 21.5469 26.5515 21.5727C26.5909 21.5985 26.6356 21.615 26.6823 21.6211C26.729 21.6272 26.7764 21.6226 26.8211 21.6078C26.8658 21.593 26.9065 21.5682 26.9403 21.5355C27.4758 20.9701 27.2463 20.1386 26.7873 19.5932Z" fill="#390A0A"/>
<path d="M22.1183 21.3725C22.1205 21.6502 22.1773 21.9249 22.2857 22.1807C22.394 22.4365 22.5516 22.6684 22.7495 22.8633C22.9475 23.0582 23.1819 23.2121 23.4394 23.3164C23.6969 23.4207 23.9723 23.4732 24.2501 23.471C24.5279 23.4732 24.8034 23.4207 25.0609 23.3164C25.3183 23.2121 25.5527 23.0582 25.7507 22.8633C25.9486 22.6684 26.1063 22.4365 26.2146 22.1807C26.3229 21.9249 26.3798 21.6502 26.382 21.3725C26.3776 20.8112 26.1506 20.2746 25.7509 19.8805C25.3512 19.4864 24.8114 19.267 24.2501 19.2706C23.6888 19.267 23.149 19.4864 22.7493 19.8805C22.3496 20.2746 22.1227 20.8112 22.1183 21.3725Z" fill="white"/>
<path d="M25.5537 21.449C25.5537 22.3935 24.9551 23.1584 24.2234 23.1584C23.4917 23.1584 22.8931 22.3935 22.8931 21.449C22.8931 20.5044 23.4884 19.7395 24.2234 19.7395C24.9584 19.7395 25.5537 20.5044 25.5537 21.449Z" fill="#80422B"/>
<path d="M25.3745 21.449C25.3745 22.2671 24.859 22.929 24.2204 22.929C23.5819 22.929 23.0663 22.2638 23.0663 21.449C23.0663 20.6342 23.5819 19.969 24.2204 19.969C24.859 19.969 25.3745 20.6308 25.3745 21.449Z" fill="#390A0A"/>
<path d="M25.2279 20.2983C25.2279 20.4812 25.0084 20.6309 24.739 20.6309C24.4696 20.6309 24.2501 20.4812 24.2501 20.2983C24.2501 20.1154 24.4696 19.9657 24.739 19.9657C25.0084 19.9657 25.2279 20.1154 25.2279 20.2983Z" fill="white"/>
<path d="M23.4385 27.7481C22.9263 27.1395 21.5062 25.6661 20.6515 26.5375C20.3954 26.8002 20.3189 26.6739 20.0362 26.5641C19.8592 26.4897 19.6686 26.4534 19.4766 26.4574C19.2847 26.4614 19.0957 26.5057 18.922 26.5874C18.5196 26.7903 18.3267 27.1894 18.0008 27.4754C17.8112 27.6359 17.6572 27.8341 17.5485 28.0574C17.5263 28.0603 17.5055 28.0692 17.4882 28.0833C17.4709 28.0974 17.4579 28.1161 17.4506 28.1372C17.4433 28.1583 17.4421 28.181 17.4471 28.2027C17.452 28.2245 17.4629 28.2444 17.4786 28.2603C18.3965 29.1682 19.2779 29.9731 20.6348 29.8633C22.5305 29.707 23.2954 27.9942 23.3354 27.9942C23.3635 27.9935 23.3909 27.9846 23.4141 27.9687C23.4374 27.9528 23.4555 27.9305 23.4664 27.9045C23.4773 27.8785 23.4805 27.8499 23.4755 27.8222C23.4706 27.7944 23.4577 27.7687 23.4385 27.7481Z" fill="#AB0048"/>
<path d="M18.616 27.768C18.616 27.768 20.7944 27.768 22.0449 27.6881C22.607 27.6516 20.0261 29.1814 18.616 27.768Z" fill="white"/>
<path d="M13.6577 18.6919C13.6577 18.6919 15.4736 16.2707 18.6198 18.6919C18.6165 18.6919 17.2828 17.7241 13.6577 18.6919Z" fill="#390A0A"/>
<path d="M22.2081 18.6919C22.2081 18.6919 24.0207 16.2707 27.1702 18.6919C27.1702 18.6919 25.8366 17.7241 22.2081 18.6919Z" fill="#390A0A"/>
<path d="M21.6394 23.1519C21.5112 23.0501 21.3542 22.9912 21.1907 22.9835C21.0272 22.9757 20.8654 23.0195 20.7281 23.1086C20.7528 22.7959 20.6895 22.4825 20.5452 22.204C20.2393 21.7351 19.7969 22.2871 19.6739 22.5898C19.5884 22.8077 19.5498 23.0411 19.5608 23.2749C19.1717 23.0687 18.746 23.0421 18.563 23.4811C18.2737 24.1463 19.5608 25.3402 20.196 25.1074C20.8312 24.8746 22.5108 24.0432 21.6394 23.1519Z" fill="#CD8B6D"/>
<path d="M11.3657 24.0432L11.3258 24.0033C11.1529 23.8237 10.8835 24.0964 11.0564 24.2727C11.8745 25.1444 12.4331 26.2271 12.6695 27.3989C12.9257 28.5887 12.9785 29.8133 12.8258 31.0207C12.7752 31.3545 12.6939 31.683 12.583 32.0018C12.42 32.4874 11.5653 34.5161 10.8768 33.4885C10.6944 33.2524 10.5445 32.9929 10.4312 32.7169C10.3009 32.2742 10.2151 31.8197 10.1751 31.36C10.1141 30.8578 10.083 30.3525 10.082 29.8467C10.1153 28.3758 10.3698 26.9183 10.8369 25.5232C10.8735 25.4068 10.6972 25.3635 10.6573 25.4766C9.8791 27.5652 9.44342 29.6405 9.8525 31.8688C9.9556 32.4176 10.5842 35.035 11.7648 34.1703C13.1617 33.1459 13.2415 31.1538 13.2581 29.564C13.2814 27.5419 12.8125 25.5232 11.3657 24.0432Z" fill="#7FADC4"/>
<path d="M12.0775 24.2993C12.0775 24.4704 12.0095 24.6345 11.8885 24.7555C11.7675 24.8765 11.6034 24.9445 11.4323 24.9445C11.3476 24.9445 11.2637 24.9278 11.1854 24.8953C11.1071 24.8629 11.036 24.8154 10.9761 24.7555C10.9162 24.6956 10.8687 24.6244 10.8362 24.5462C10.8038 24.4679 10.7871 24.384 10.7871 24.2993C10.7871 24.2145 10.8038 24.1306 10.8362 24.0523C10.8687 23.9741 10.9162 23.9029 10.9761 23.843C11.036 23.7831 11.1071 23.7356 11.1854 23.7032C11.2637 23.6707 11.3476 23.6541 11.4323 23.6541C11.6034 23.6541 11.7675 23.722 11.8885 23.843C12.0095 23.964 12.0775 24.1281 12.0775 24.2993Z" fill="white"/>
<path d="M28.6964 24.2859L28.7363 24.2427C28.9093 24.0664 29.1786 24.3391 29.009 24.5154C28.1895 25.3852 27.6296 26.467 27.3927 27.6383C27.1375 28.8294 27.0858 30.0551 27.2397 31.2635C27.2896 31.5971 27.3697 31.9255 27.4792 32.2446C27.6421 32.7301 28.5002 34.7589 29.1853 33.7312C29.3679 33.494 29.5178 33.2334 29.631 32.9563C29.7613 32.5148 29.8471 32.0613 29.887 31.6027C29.949 31.1006 29.9812 30.5953 29.9835 30.0894C29.9475 28.6185 29.6919 27.1613 29.2252 25.7659C29.192 25.6495 29.3649 25.6063 29.4048 25.716C30.183 27.8079 30.6187 29.8832 30.2097 32.1115C30.1066 32.6603 29.478 35.2777 28.2973 34.413C26.9005 33.3886 26.824 31.3965 26.804 29.8068C26.7808 27.788 27.2497 25.7626 28.6964 24.2859Z" fill="#7FADC4"/>
<path d="M29.2688 24.379C29.2689 24.4655 29.2515 24.551 29.2179 24.6306C29.1842 24.7103 29.1349 24.7823 29.0729 24.8425C29.0108 24.9027 28.9373 24.9497 28.8567 24.981C28.7761 25.0122 28.6901 25.0269 28.6037 25.0242C28.5189 25.0242 28.435 25.0076 28.3568 24.9751C28.2785 24.9427 28.2074 24.8952 28.1475 24.8353C28.0875 24.7754 28.04 24.7042 28.0076 24.6259C27.9751 24.5477 27.9585 24.4638 27.9585 24.379C27.9585 24.2943 27.9751 24.2104 28.0076 24.1321C28.04 24.0538 28.0875 23.9827 28.1475 23.9228C28.2074 23.8629 28.2785 23.8154 28.3568 23.7829C28.435 23.7505 28.5189 23.7338 28.6037 23.7338C28.6901 23.7312 28.7761 23.7459 28.8567 23.7771C28.9373 23.8083 29.0108 23.8554 29.0729 23.9156C29.1349 23.9758 29.1842 24.0478 29.2179 24.1274C29.2515 24.207 29.2689 24.2926 29.2688 24.379Z" fill="white"/>
</g>
</svg>
