<svg width="72" height="74" viewBox="0 0 72 74" fill="none" xmlns="http://www.w3.org/2000/svg">
<path opacity="0.7" d="M71.5866 36.3745C71.6123 31.5977 70.7145 26.8728 68.9445 22.4695C67.1744 18.0662 64.5667 14.0707 61.2703 10.7113C57.9739 7.35179 54.0533 4.69408 49.7324 2.88988C45.4115 1.08568 40.7749 0.17032 36.0874 0.196068C31.3998 0.221817 26.7531 1.18817 22.4125 3.03994C18.0718 4.89172 14.1224 7.59266 10.7896 10.9886C7.45674 14.3844 4.80583 18.4088 2.98819 22.8318C1.17055 27.2548 0.221764 31.9899 0.196015 36.7666L10.9046 36.7078C10.9226 33.3641 11.5868 30.0495 12.8591 26.9534C14.1315 23.8573 15.9871 21.0403 18.3201 18.6632C20.6531 16.286 23.4177 14.3954 26.4561 13.0991C29.4945 11.8029 32.7472 11.1264 36.0285 11.1084C39.3098 11.0904 42.5555 11.7311 45.5801 12.9941C48.6047 14.257 51.3491 16.1174 53.6566 18.4691C55.9641 20.8207 57.7895 23.6175 59.0285 26.6998C60.2676 29.7821 60.896 33.0896 60.878 36.4333L71.5866 36.3745Z" fill="white"/>
<path d="M61.2703 10.7113C56.3057 5.65162 49.964 2.22223 43.0474 0.856742C36.1308 -0.508741 28.9497 0.251018 22.4125 3.03994C15.8751 5.82887 10.2752 10.5217 6.32069 16.525C2.36619 22.5283 0.234795 29.5724 0.196015 36.7666L7.33508 36.7274C7.36609 30.9721 9.07121 25.3368 12.2348 20.5341C15.3984 15.7315 19.8784 11.9772 25.1082 9.74607C30.3381 7.51493 36.0829 6.90712 41.6162 7.99951C47.1495 9.09189 52.2228 11.8354 56.1945 15.8831L61.2703 10.7113Z" fill="#0066FF"/>
</svg>
