<svg width="10" height="9" viewBox="0 0 10 9" fill="none" xmlns="http://www.w3.org/2000/svg">
<path d="M7.96083 1.61139C7.78829 1.43323 7.58305 1.29227 7.35684 1.19657C7.13062 1.10087 6.88786 1.05231 6.64243 1.05366C6.397 1.05501 6.1537 1.10624 5.92644 1.20443C5.69918 1.30262 5.49241 1.44584 5.31794 1.62591L4.95585 1.99945L4.59777 1.62987C4.24925 1.27015 3.775 1.0696 3.27936 1.07232C2.78372 1.07504 2.30729 1.28082 1.95487 1.64438C1.60245 2.00795 1.40291 2.49951 1.40016 3.01095C1.3974 3.52238 1.59165 4.01179 1.94017 4.3715L2.29825 4.74108L4.92645 7.45368L7.58405 4.71205L7.94613 4.33851C8.12069 4.15852 8.25953 3.94519 8.35474 3.71071C8.44995 3.47623 8.49966 3.2252 8.50103 2.97194C8.50239 2.71869 8.45539 2.46818 8.3627 2.23474C8.27001 2.00129 8.13346 1.78947 7.96083 1.61139V1.61139Z" stroke="#96C0FF" stroke-width="1.3" stroke-linecap="round" stroke-linejoin="round"/>
</svg>
