<svg width="10" height="12" viewBox="0 0 10 12" fill="none" xmlns="http://www.w3.org/2000/svg">
<path fill-rule="evenodd" clip-rule="evenodd" d="M1.14041 9.87724C0.972205 9.78037 0.822884 9.6446 0.707021 9.47284C0.300338 8.86992 0.459452 8.05117 1.06241 7.64415L6.02716 4.2927L7.80803 3.09052L9.01523 2.2756C9.0943 2.22224 9.1772 2.22719 9.24147 2.26419C9.35124 2.32741 9.40667 2.48417 9.29573 2.60353L8.34248 3.62919L6.80369 5.28489L2.76311 9.63247C2.69724 9.70249 2.61816 9.77158 2.53514 9.8276C2.10395 10.1187 1.56264 10.1204 1.14041 9.87724ZM2.41633 9.05283C2.59428 8.7438 2.48813 8.34911 2.17927 8.17125C1.8704 7.99339 1.47577 8.09966 1.2978 8.40872C1.11986 8.71771 1.22599 9.11243 1.53486 9.29029C1.84373 9.46816 2.23839 9.36182 2.41633 9.05283Z" fill="#506883"/>
</svg>
